<?xml version="1.0" encoding="utf-8" standalone="no"?>
<!DOCTYPE svg PUBLIC "-//W3C//DTD SVG 1.1//EN"
  "http://www.w3.org/Graphics/SVG/1.1/DTD/svg11.dtd">
<svg xmlns:xlink="http://www.w3.org/1999/xlink" width="460.8pt" height="345.6pt" viewBox="0 0 460.8 345.6" xmlns="http://www.w3.org/2000/svg" version="1.1">
 <metadata>
  <rdf:RDF xmlns:dc="http://purl.org/dc/elements/1.1/" xmlns:cc="http://creativecommons.org/ns#" xmlns:rdf="http://www.w3.org/1999/02/22-rdf-syntax-ns#">
   <cc:Work>
    <dc:type rdf:resource="http://purl.org/dc/dcmitype/StillImage"/>
    <dc:date>2024-11-03T16:20:11.204965</dc:date>
    <dc:format>image/svg+xml</dc:format>
    <dc:creator>
     <cc:Agent>
      <dc:title>Matplotlib v3.9.2, https://matplotlib.org/</dc:title>
     </cc:Agent>
    </dc:creator>
   </cc:Work>
  </rdf:RDF>
 </metadata>
 <defs>
  <style type="text/css">*{stroke-linejoin: round; stroke-linecap: butt}</style>
 </defs>
 <g id="figure_1">
  <g id="patch_1">
   <path d="M 0 345.6 
L 460.8 345.6 
L 460.8 0 
L 0 0 
z
" style="fill: #ffffff"/>
  </g>
  <g id="axes_1">
   <g id="patch_2">
    <path d="M 57.6 307.584 
L 414.72 307.584 
L 414.72 41.472 
L 57.6 41.472 
z
" style="fill: #ffffff"/>
   </g>
   <g id="patch_3">
    <path d="M 73.97294 307.584 
L 75.365157 307.584 
L 75.365157 241.056 
L 73.97294 241.056 
z
" clip-path="url(#p9f52197534)" style="fill: #a50026"/>
   </g>
   <g id="patch_4">
    <path d="M 77.088945 307.584 
L 78.811142 307.584 
L 78.811142 241.056 
L 77.088945 241.056 
z
" clip-path="url(#p9f52197534)" style="fill: #a50026"/>
   </g>
   <g id="patch_5">
    <path d="M 80.535366 307.584 
L 82.257203 307.584 
L 82.257203 241.056 
L 80.535366 241.056 
z
" clip-path="url(#p9f52197534)" style="fill: #a50026"/>
   </g>
   <g id="patch_6">
    <path d="M 83.982942 307.584 
L 85.703392 307.584 
L 85.703392 241.056 
L 83.982942 241.056 
z
" clip-path="url(#p9f52197534)" style="fill: #a50026"/>
   </g>
   <g id="patch_7">
    <path d="M 87.427206 307.584 
L 88.718725 307.584 
L 88.718725 241.056 
L 87.427206 241.056 
z
" clip-path="url(#p9f52197534)" style="fill: #a50026"/>
   </g>
   <g id="patch_8">
    <path d="M 90.44241 307.584 
L 92.164812 307.584 
L 92.164812 241.056 
L 90.44241 241.056 
z
" clip-path="url(#p9f52197534)" style="fill: #a50026"/>
   </g>
   <g id="patch_9">
    <path d="M 93.888369 307.584 
L 95.610873 307.584 
L 95.610873 241.056 
L 93.888369 241.056 
z
" clip-path="url(#p9f52197534)" style="fill: #a50026"/>
   </g>
   <g id="patch_10">
    <path d="M 97.334995 307.584 
L 99.05696 307.584 
L 99.05696 241.056 
L 97.334995 241.056 
z
" clip-path="url(#p9f52197534)" style="fill: #a50026"/>
   </g>
   <g id="patch_11">
    <path d="M 100.780979 307.584 
L 102.503047 307.584 
L 102.503047 241.056 
L 100.780979 241.056 
z
" clip-path="url(#p9f52197534)" style="fill: #a50026"/>
   </g>
   <g id="patch_12">
    <path d="M 104.22704 307.584 
L 105.949134 307.584 
L 105.949134 241.056 
L 104.22704 241.056 
z
" clip-path="url(#p9f52197534)" style="fill: #a50026"/>
   </g>
   <g id="patch_13">
    <path d="M 107.673127 307.584 
L 109.395195 307.584 
L 109.395195 241.056 
L 107.673127 241.056 
z
" clip-path="url(#p9f52197534)" style="fill: #a50026"/>
   </g>
   <g id="patch_14">
    <path d="M 111.11888 307.584 
L 112.841282 307.584 
L 112.841282 241.056 
L 111.11888 241.056 
z
" clip-path="url(#p9f52197534)" style="fill: #a50026"/>
   </g>
   <g id="patch_15">
    <path d="M 114.56507 307.584 
L 116.287369 307.584 
L 116.287369 241.056 
L 114.56507 241.056 
z
" clip-path="url(#p9f52197534)" style="fill: #a50026"/>
   </g>
   <g id="patch_16">
    <path d="M 118.011593 307.584 
L 119.733328 307.584 
L 119.733328 241.056 
L 118.011593 241.056 
z
" clip-path="url(#p9f52197534)" style="fill: #a50026"/>
   </g>
   <g id="patch_17">
    <path d="M 121.458091 307.584 
L 123.171763 307.584 
L 123.171763 241.056 
L 121.458091 241.056 
z
" clip-path="url(#p9f52197534)" style="fill: #a50026"/>
   </g>
   <g id="patch_18">
    <path d="M 124.903639 307.584 
L 126.19485 307.584 
L 126.19485 241.056 
L 124.903639 241.056 
z
" clip-path="url(#p9f52197534)" style="fill: #a50026"/>
   </g>
   <g id="patch_19">
    <path d="M 127.918535 307.584 
L 129.640911 307.584 
L 129.640911 241.056 
L 127.918535 241.056 
z
" clip-path="url(#p9f52197534)" style="fill: #a50026"/>
   </g>
   <g id="patch_20">
    <path d="M 131.364725 307.584 
L 133.086998 307.584 
L 133.086998 241.056 
L 131.364725 241.056 
z
" clip-path="url(#p9f52197534)" style="fill: #a50026"/>
   </g>
   <g id="patch_21">
    <path d="M 134.810683 307.584 
L 136.533085 307.584 
L 136.533085 241.056 
L 134.810683 241.056 
z
" clip-path="url(#p9f52197534)" style="fill: #a50026"/>
   </g>
   <g id="patch_22">
    <path d="M 138.257309 307.584 
L 139.979043 307.584 
L 139.979043 241.056 
L 138.257309 241.056 
z
" clip-path="url(#p9f52197534)" style="fill: #a50026"/>
   </g>
   <g id="patch_23">
    <path d="M 141.703396 307.584 
L 143.425233 307.584 
L 143.425233 241.056 
L 141.703396 241.056 
z
" clip-path="url(#p9f52197534)" style="fill: #a50026"/>
   </g>
   <g id="patch_24">
    <path d="M 145.149047 307.584 
L 146.87132 307.584 
L 146.87132 241.056 
L 145.149047 241.056 
z
" clip-path="url(#p9f52197534)" style="fill: #a50026"/>
   </g>
   <g id="patch_25">
    <path d="M 148.594902 307.584 
L 150.317407 307.584 
L 150.317407 241.056 
L 148.594902 241.056 
z
" clip-path="url(#p9f52197534)" style="fill: #a50026"/>
   </g>
   <g id="patch_26">
    <path d="M 152.041092 307.584 
L 153.763494 307.584 
L 153.763494 241.056 
L 152.041092 241.056 
z
" clip-path="url(#p9f52197534)" style="fill: #a50026"/>
   </g>
   <g id="patch_27">
    <path d="M 155.48759 307.584 
L 157.209555 307.584 
L 157.209555 241.056 
L 155.48759 241.056 
z
" clip-path="url(#p9f52197534)" style="fill: #a50026"/>
   </g>
   <g id="patch_28">
    <path d="M 158.93324 307.584 
L 160.655642 307.584 
L 160.655642 241.056 
L 158.93324 241.056 
z
" clip-path="url(#p9f52197534)" style="fill: #a50026"/>
   </g>
   <g id="patch_29">
    <path d="M 162.379866 307.584 
L 164.101729 307.584 
L 164.101729 241.056 
L 162.379866 241.056 
z
" clip-path="url(#p9f52197534)" style="fill: #a50026"/>
   </g>
   <g id="patch_30">
    <path d="M 165.825414 307.584 
L 167.54779 307.584 
L 167.54779 241.056 
L 165.825414 241.056 
z
" clip-path="url(#p9f52197534)" style="fill: #a50026"/>
   </g>
   <g id="patch_31">
    <path d="M 169.271604 307.584 
L 170.993877 307.584 
L 170.993877 241.056 
L 169.271604 241.056 
z
" clip-path="url(#p9f52197534)" style="fill: #a50026"/>
   </g>
   <g id="patch_32">
    <path d="M 172.718204 307.584 
L 174.439964 307.584 
L 174.439964 241.056 
L 172.718204 241.056 
z
" clip-path="url(#p9f52197534)" style="fill: #a50026"/>
   </g>
   <g id="patch_33">
    <path d="M 176.164291 307.584 
L 177.886051 307.584 
L 177.886051 241.056 
L 176.164291 241.056 
z
" clip-path="url(#p9f52197534)" style="fill: #a50026"/>
   </g>
   <g id="patch_34">
    <path d="M 179.610044 307.584 
L 181.332112 307.584 
L 181.332112 241.056 
L 179.610044 241.056 
z
" clip-path="url(#p9f52197534)" style="fill: #a50026"/>
   </g>
   <g id="patch_35">
    <path d="M 183.055926 307.584 
L 184.778096 307.584 
L 184.778096 241.056 
L 183.055926 241.056 
z
" clip-path="url(#p9f52197534)" style="fill: #a50026"/>
   </g>
   <g id="patch_36">
    <path d="M 186.502218 307.584 
L 188.224286 307.584 
L 188.224286 241.056 
L 186.502218 241.056 
z
" clip-path="url(#p9f52197534)" style="fill: #a50026"/>
   </g>
   <g id="patch_37">
    <path d="M 189.948074 307.584 
L 191.670244 307.584 
L 191.670244 241.056 
L 189.948074 241.056 
z
" clip-path="url(#p9f52197534)" style="fill: #a50026"/>
   </g>
   <g id="patch_38">
    <path d="M 193.394469 307.584 
L 195.116434 307.584 
L 195.116434 241.056 
L 193.394469 241.056 
z
" clip-path="url(#p9f52197534)" style="fill: #a50026"/>
   </g>
   <g id="patch_39">
    <path d="M 196.840659 307.584 
L 198.562521 307.584 
L 198.562521 241.056 
L 196.840659 241.056 
z
" clip-path="url(#p9f52197534)" style="fill: #a50026"/>
   </g>
   <g id="patch_40">
    <path d="M 200.286206 307.584 
L 202.008608 307.584 
L 202.008608 241.056 
L 200.286206 241.056 
z
" clip-path="url(#p9f52197534)" style="fill: #a50026"/>
   </g>
   <g id="patch_41">
    <path d="M 203.733038 307.584 
L 205.454669 307.584 
L 205.454669 241.056 
L 203.733038 241.056 
z
" clip-path="url(#p9f52197534)" style="fill: #a50026"/>
   </g>
   <g id="patch_42">
    <path d="M 207.178355 307.584 
L 208.900756 307.584 
L 208.900756 241.056 
L 207.178355 241.056 
z
" clip-path="url(#p9f52197534)" style="fill: #a50026"/>
   </g>
   <g id="patch_43">
    <path d="M 210.624878 307.584 
L 212.346843 307.584 
L 212.346843 241.056 
L 210.624878 241.056 
z
" clip-path="url(#p9f52197534)" style="fill: #a50026"/>
   </g>
   <g id="patch_44">
    <path d="M 214.070528 307.584 
L 215.792802 307.584 
L 215.792802 241.056 
L 214.070528 241.056 
z
" clip-path="url(#p9f52197534)" style="fill: #a50026"/>
   </g>
   <g id="patch_45">
    <path d="M 217.516718 307.584 
L 219.238991 307.584 
L 219.238991 241.056 
L 217.516718 241.056 
z
" clip-path="url(#p9f52197534)" style="fill: #a50026"/>
   </g>
   <g id="patch_46">
    <path d="M 220.963113 307.584 
L 222.685078 307.584 
L 222.685078 241.056 
L 220.963113 241.056 
z
" clip-path="url(#p9f52197534)" style="fill: #a50026"/>
   </g>
   <g id="patch_47">
    <path d="M 224.4092 307.584 
L 226.131165 307.584 
L 226.131165 241.056 
L 224.4092 241.056 
z
" clip-path="url(#p9f52197534)" style="fill: #a50026"/>
   </g>
   <g id="patch_48">
    <path d="M 227.85539 307.584 
L 229.577252 307.584 
L 229.577252 241.056 
L 227.85539 241.056 
z
" clip-path="url(#p9f52197534)" style="fill: #a50026"/>
   </g>
   <g id="patch_49">
    <path d="M 230.885357 307.584 
L 232.592559 307.584 
L 232.592559 241.056 
L 230.885357 241.056 
z
" clip-path="url(#p9f52197534)" style="fill: #a50026"/>
   </g>
   <g id="patch_50">
    <path d="M 234.316681 307.584 
L 236.038646 307.584 
L 236.038646 241.056 
L 234.316681 241.056 
z
" clip-path="url(#p9f52197534)" style="fill: #a50026"/>
   </g>
   <g id="patch_51">
    <path d="M 238.193291 307.584 
L 239.915487 307.584 
L 239.915487 241.056 
L 238.193291 241.056 
z
" clip-path="url(#p9f52197534)" style="fill: #a50026"/>
   </g>
   <g id="patch_52">
    <path d="M 241.639172 307.584 
L 243.361548 307.584 
L 243.361548 241.056 
L 241.639172 241.056 
z
" clip-path="url(#p9f52197534)" style="fill: #a50026"/>
   </g>
   <g id="patch_53">
    <path d="M 245.08567 307.584 
L 246.807635 307.584 
L 246.807635 241.056 
L 245.08567 241.056 
z
" clip-path="url(#p9f52197534)" style="fill: #a50026"/>
   </g>
   <g id="patch_54">
    <path d="M 248.53186 307.584 
L 250.253722 307.584 
L 250.253722 241.056 
L 248.53186 241.056 
z
" clip-path="url(#p9f52197534)" style="fill: #a50026"/>
   </g>
   <g id="patch_55">
    <path d="M 251.977408 307.584 
L 253.699809 307.584 
L 253.699809 241.056 
L 251.977408 241.056 
z
" clip-path="url(#p9f52197534)" style="fill: #a50026"/>
   </g>
   <g id="patch_56">
    <path d="M 255.424136 307.584 
L 257.14587 307.584 
L 257.14587 241.056 
L 255.424136 241.056 
z
" clip-path="url(#p9f52197534)" style="fill: #a50026"/>
   </g>
   <g id="patch_57">
    <path d="M 258.869684 307.584 
L 260.591855 307.584 
L 260.591855 241.056 
L 258.869684 241.056 
z
" clip-path="url(#p9f52197534)" style="fill: #a50026"/>
   </g>
   <g id="patch_58">
    <path d="M 262.316285 307.584 
L 264.038044 307.584 
L 264.038044 241.056 
L 262.316285 241.056 
z
" clip-path="url(#p9f52197534)" style="fill: #a50026"/>
   </g>
   <g id="patch_59">
    <path d="M 265.762038 307.584 
L 267.484131 307.584 
L 267.484131 241.056 
L 265.762038 241.056 
z
" clip-path="url(#p9f52197534)" style="fill: #a50026"/>
   </g>
   <g id="patch_60">
    <path d="M 269.208356 307.584 
L 270.93009 307.584 
L 270.93009 241.056 
L 269.208356 241.056 
z
" clip-path="url(#p9f52197534)" style="fill: #a50026"/>
   </g>
   <g id="patch_61">
    <path d="M 272.654314 307.584 
L 274.376177 307.584 
L 274.376177 241.056 
L 272.654314 241.056 
z
" clip-path="url(#p9f52197534)" style="fill: #a50026"/>
   </g>
   <g id="patch_62">
    <path d="M 276.100504 307.584 
L 277.822366 307.584 
L 277.822366 241.056 
L 276.100504 241.056 
z
" clip-path="url(#p9f52197534)" style="fill: #a50026"/>
   </g>
   <g id="patch_63">
    <path d="M 279.54636 307.584 
L 281.268427 307.584 
L 281.268427 241.056 
L 279.54636 241.056 
z
" clip-path="url(#p9f52197534)" style="fill: #a50026"/>
   </g>
   <g id="patch_64">
    <path d="M 282.992447 307.584 
L 284.714514 307.584 
L 284.714514 241.056 
L 282.992447 241.056 
z
" clip-path="url(#p9f52197534)" style="fill: #a50026"/>
   </g>
   <g id="patch_65">
    <path d="M 286.4382 307.584 
L 288.160601 307.584 
L 288.160601 241.056 
L 286.4382 241.056 
z
" clip-path="url(#p9f52197534)" style="fill: #a50026"/>
   </g>
   <g id="patch_66">
    <path d="M 289.884723 307.584 
L 291.606688 307.584 
L 291.606688 241.056 
L 289.884723 241.056 
z
" clip-path="url(#p9f52197534)" style="fill: #a50026"/>
   </g>
   <g id="patch_67">
    <path d="M 293.330913 307.584 
L 295.05275 307.584 
L 295.05275 241.056 
L 293.330913 241.056 
z
" clip-path="url(#p9f52197534)" style="fill: #a50026"/>
   </g>
   <g id="patch_68">
    <path d="M 296.776974 307.584 
L 298.498836 307.584 
L 298.498836 241.056 
L 296.776974 241.056 
z
" clip-path="url(#p9f52197534)" style="fill: #a50026"/>
   </g>
   <g id="patch_69">
    <path d="M 300.222522 307.584 
L 302.375678 307.584 
L 302.375678 241.056 
L 300.222522 241.056 
z
" clip-path="url(#p9f52197534)" style="fill: #a50026"/>
   </g>
   <g id="patch_70">
    <path d="M 304.960898 307.584 
L 306.683274 307.584 
L 306.683274 241.056 
L 304.960898 241.056 
z
" clip-path="url(#p9f52197534)" style="fill: #a50026"/>
   </g>
   <g id="patch_71">
    <path d="M 308.406959 307.584 
L 310.129361 307.584 
L 310.129361 241.056 
L 308.406959 241.056 
z
" clip-path="url(#p9f52197534)" style="fill: #a50026"/>
   </g>
   <g id="patch_72">
    <path d="M 311.853046 307.584 
L 313.575319 307.584 
L 313.575319 241.056 
L 311.853046 241.056 
z
" clip-path="url(#p9f52197534)" style="fill: #a50026"/>
   </g>
   <g id="patch_73">
    <path d="M 315.29903 307.584 
L 317.021509 307.584 
L 317.021509 241.056 
L 315.29903 241.056 
z
" clip-path="url(#p9f52197534)" style="fill: #a50026"/>
   </g>
   <g id="patch_74">
    <path d="M 318.745194 307.584 
L 320.467596 307.584 
L 320.467596 241.056 
L 318.745194 241.056 
z
" clip-path="url(#p9f52197534)" style="fill: #a50026"/>
   </g>
   <g id="patch_75">
    <path d="M 322.191717 307.584 
L 323.913683 307.584 
L 323.913683 241.056 
L 322.191717 241.056 
z
" clip-path="url(#p9f52197534)" style="fill: #a50026"/>
   </g>
   <g id="patch_76">
    <path d="M 325.637265 307.584 
L 327.35977 307.584 
L 327.35977 241.056 
L 325.637265 241.056 
z
" clip-path="url(#p9f52197534)" style="fill: #a50026"/>
   </g>
   <g id="patch_77">
    <path d="M 329.083558 307.584 
L 330.805831 307.584 
L 330.805831 241.056 
L 329.083558 241.056 
z
" clip-path="url(#p9f52197534)" style="fill: #a50026"/>
   </g>
   <g id="patch_78">
    <path d="M 332.529953 307.584 
L 334.251918 307.584 
L 334.251918 241.056 
L 332.529953 241.056 
z
" clip-path="url(#p9f52197534)" style="fill: #a50026"/>
   </g>
   <g id="patch_79">
    <path d="M 335.97604 307.584 
L 338.128759 307.584 
L 338.128759 241.056 
L 335.97604 241.056 
z
" clip-path="url(#p9f52197534)" style="fill: #a50026"/>
   </g>
   <g id="patch_80">
    <path d="M 340.283635 307.584 
L 342.0056 307.584 
L 342.0056 241.056 
L 340.283635 241.056 
z
" clip-path="url(#p9f52197534)" style="fill: #a50026"/>
   </g>
   <g id="patch_81">
    <path d="M 343.30056 307.584 
L 345.020907 307.584 
L 345.020907 241.056 
L 343.30056 241.056 
z
" clip-path="url(#p9f52197534)" style="fill: #a50026"/>
   </g>
   <g id="patch_82">
    <path d="M 346.750524 307.584 
L 348.466994 307.584 
L 348.466994 241.056 
L 346.750524 241.056 
z
" clip-path="url(#p9f52197534)" style="fill: #a50026"/>
   </g>
   <g id="patch_83">
    <path d="M 350.191219 307.584 
L 351.913081 307.584 
L 351.913081 241.056 
L 350.191219 241.056 
z
" clip-path="url(#p9f52197534)" style="fill: #a50026"/>
   </g>
   <g id="patch_84">
    <path d="M 353.637306 307.584 
L 355.359168 307.584 
L 355.359168 241.056 
L 353.637306 241.056 
z
" clip-path="url(#p9f52197534)" style="fill: #a50026"/>
   </g>
   <g id="patch_85">
    <path d="M 357.083264 307.584 
L 358.805127 307.584 
L 358.805127 241.056 
L 357.083264 241.056 
z
" clip-path="url(#p9f52197534)" style="fill: #a50026"/>
   </g>
   <g id="patch_86">
    <path d="M 360.529685 307.584 
L 362.251316 307.584 
L 362.251316 241.056 
L 360.529685 241.056 
z
" clip-path="url(#p9f52197534)" style="fill: #a50026"/>
   </g>
   <g id="patch_87">
    <path d="M 363.975002 307.584 
L 365.697403 307.584 
L 365.697403 241.056 
L 363.975002 241.056 
z
" clip-path="url(#p9f52197534)" style="fill: #a50026"/>
   </g>
   <g id="patch_88">
    <path d="M 367.421833 307.584 
L 369.14349 307.584 
L 369.14349 241.056 
L 367.421833 241.056 
z
" clip-path="url(#p9f52197534)" style="fill: #a50026"/>
   </g>
   <g id="patch_89">
    <path d="M 370.867175 307.584 
L 372.589551 307.584 
L 372.589551 241.056 
L 370.867175 241.056 
z
" clip-path="url(#p9f52197534)" style="fill: #a50026"/>
   </g>
   <g id="patch_90">
    <path d="M 374.313237 307.584 
L 376.035638 307.584 
L 376.035638 241.056 
L 374.313237 241.056 
z
" clip-path="url(#p9f52197534)" style="fill: #a50026"/>
   </g>
   <g id="patch_91">
    <path d="M 377.759426 307.584 
L 379.481725 307.584 
L 379.481725 241.056 
L 377.759426 241.056 
z
" clip-path="url(#p9f52197534)" style="fill: #a50026"/>
   </g>
   <g id="patch_92">
    <path d="M 381.20541 307.584 
L 382.927786 307.584 
L 382.927786 241.056 
L 381.20541 241.056 
z
" clip-path="url(#p9f52197534)" style="fill: #a50026"/>
   </g>
   <g id="patch_93">
    <path d="M 384.65255 307.584 
L 386.373873 307.584 
L 386.373873 241.056 
L 384.65255 241.056 
z
" clip-path="url(#p9f52197534)" style="fill: #a50026"/>
   </g>
   <g id="patch_94">
    <path d="M 388.097995 307.584 
L 389.81996 307.584 
L 389.81996 241.056 
L 388.097995 241.056 
z
" clip-path="url(#p9f52197534)" style="fill: #a50026"/>
   </g>
   <g id="patch_95">
    <path d="M 391.543646 307.584 
L 393.265919 307.584 
L 393.265919 241.056 
L 391.543646 241.056 
z
" clip-path="url(#p9f52197534)" style="fill: #a50026"/>
   </g>
   <g id="patch_96">
    <path d="M 394.989733 307.584 
L 396.712108 307.584 
L 396.712108 241.056 
L 394.989733 241.056 
z
" clip-path="url(#p9f52197534)" style="fill: #a50026"/>
   </g>
   <g id="patch_97">
    <path d="M 75.406289 241.056 
L 77.088201 241.056 
L 77.088201 174.528 
L 75.406289 174.528 
z
" clip-path="url(#p9f52197534)" style="fill: #a50026"/>
   </g>
   <g id="patch_98">
    <path d="M 78.812323 241.056 
L 80.534288 241.056 
L 80.534288 174.528 
L 78.812323 174.528 
z
" clip-path="url(#p9f52197534)" style="fill: #a50026"/>
   </g>
   <g id="patch_99">
    <path d="M 82.25841 241.056 
L 83.980246 241.056 
L 83.980246 174.528 
L 82.25841 174.528 
z
" clip-path="url(#p9f52197534)" style="fill: #a50026"/>
   </g>
   <g id="patch_100">
    <path d="M 85.704599 241.056 
L 87.426436 241.056 
L 87.426436 174.528 
L 85.704599 174.528 
z
" clip-path="url(#p9f52197534)" style="fill: #a50026"/>
   </g>
   <g id="patch_101">
    <path d="M 88.72119 241.056 
L 90.441768 241.056 
L 90.441768 174.528 
L 88.72119 174.528 
z
" clip-path="url(#p9f52197534)" style="fill: #a50026"/>
   </g>
   <g id="patch_102">
    <path d="M 92.165993 241.056 
L 93.887855 241.056 
L 93.887855 174.528 
L 92.165993 174.528 
z
" clip-path="url(#p9f52197534)" style="fill: #a50026"/>
   </g>
   <g id="patch_103">
    <path d="M 95.611849 241.056 
L 97.333814 241.056 
L 97.333814 174.528 
L 95.611849 174.528 
z
" clip-path="url(#p9f52197534)" style="fill: #a50026"/>
   </g>
   <g id="patch_104">
    <path d="M 99.057833 241.056 
L 100.780003 241.056 
L 100.780003 174.528 
L 99.057833 174.528 
z
" clip-path="url(#p9f52197534)" style="fill: #a50026"/>
   </g>
   <g id="patch_105">
    <path d="M 102.504023 241.056 
L 104.22609 241.056 
L 104.22609 174.528 
L 102.504023 174.528 
z
" clip-path="url(#p9f52197534)" style="fill: #a50026"/>
   </g>
   <g id="patch_106">
    <path d="M 105.951932 241.056 
L 107.672152 241.056 
L 107.672152 174.528 
L 105.951932 174.528 
z
" clip-path="url(#p9f52197534)" style="fill: #a50026"/>
   </g>
   <g id="patch_107">
    <path d="M 109.396376 241.056 
L 111.118239 241.056 
L 111.118239 174.528 
L 109.396376 174.528 
z
" clip-path="url(#p9f52197534)" style="fill: #a50026"/>
   </g>
   <g id="patch_108">
    <path d="M 112.84236 241.056 
L 114.564326 241.056 
L 114.564326 174.528 
L 112.84236 174.528 
z
" clip-path="url(#p9f52197534)" style="fill: #a50026"/>
   </g>
   <g id="patch_109">
    <path d="M 116.289628 241.056 
L 118.010412 241.056 
L 118.010412 174.528 
L 116.289628 174.528 
z
" clip-path="url(#p9f52197534)" style="fill: #a50026"/>
   </g>
   <g id="patch_110">
    <path d="M 119.736255 241.056 
L 121.456371 241.056 
L 121.456371 174.528 
L 119.736255 174.528 
z
" clip-path="url(#p9f52197534)" style="fill: #a50026"/>
   </g>
   <g id="patch_111">
    <path d="M 123.181366 241.056 
L 124.902561 241.056 
L 124.902561 174.528 
L 123.181366 174.528 
z
" clip-path="url(#p9f52197534)" style="fill: #a50026"/>
   </g>
   <g id="patch_112">
    <path d="M 126.198085 241.056 
L 127.917893 241.056 
L 127.917893 174.528 
L 126.198085 174.528 
z
" clip-path="url(#p9f52197534)" style="fill: #a50026"/>
   </g>
   <g id="patch_113">
    <path d="M 129.648459 241.056 
L 131.363954 241.056 
L 131.363954 174.528 
L 129.648459 174.528 
z
" clip-path="url(#p9f52197534)" style="fill: #a50026"/>
   </g>
   <g id="patch_114">
    <path d="M 133.087973 241.056 
L 134.810041 241.056 
L 134.810041 174.528 
L 133.087973 174.528 
z
" clip-path="url(#p9f52197534)" style="fill: #a50026"/>
   </g>
   <g id="patch_115">
    <path d="M 136.533727 241.056 
L 138.256128 241.056 
L 138.256128 174.528 
L 136.533727 174.528 
z
" clip-path="url(#p9f52197534)" style="fill: #a50026"/>
   </g>
   <g id="patch_116">
    <path d="M 139.980995 241.056 
L 141.702087 241.056 
L 141.702087 174.528 
L 139.980995 174.528 
z
" clip-path="url(#p9f52197534)" style="fill: #a50026"/>
   </g>
   <g id="patch_117">
    <path d="M 143.4259 241.056 
L 145.148276 241.056 
L 145.148276 174.528 
L 143.4259 174.528 
z
" clip-path="url(#p9f52197534)" style="fill: #a50026"/>
   </g>
   <g id="patch_118">
    <path d="M 146.872937 241.056 
L 148.594363 241.056 
L 148.594363 174.528 
L 146.872937 174.528 
z
" clip-path="url(#p9f52197534)" style="fill: #a50026"/>
   </g>
   <g id="patch_119">
    <path d="M 150.318254 241.056 
L 152.04045 241.056 
L 152.04045 174.528 
L 150.318254 174.528 
z
" clip-path="url(#p9f52197534)" style="fill: #a50026"/>
   </g>
   <g id="patch_120">
    <path d="M 153.764777 241.056 
L 155.486511 241.056 
L 155.486511 174.528 
L 153.764777 174.528 
z
" clip-path="url(#p9f52197534)" style="fill: #a50026"/>
   </g>
   <g id="patch_121">
    <path d="M 157.210736 241.056 
L 158.932598 241.056 
L 158.932598 174.528 
L 157.210736 174.528 
z
" clip-path="url(#p9f52197534)" style="fill: #a50026"/>
   </g>
   <g id="patch_122">
    <path d="M 160.65672 241.056 
L 162.378685 241.056 
L 162.378685 174.528 
L 160.65672 174.528 
z
" clip-path="url(#p9f52197534)" style="fill: #a50026"/>
   </g>
   <g id="patch_123">
    <path d="M 164.103654 241.056 
L 165.824644 241.056 
L 165.824644 174.528 
L 164.103654 174.528 
z
" clip-path="url(#p9f52197534)" style="fill: #a50026"/>
   </g>
   <g id="patch_124">
    <path d="M 167.548458 241.056 
L 169.270731 241.056 
L 169.270731 174.528 
L 167.548458 174.528 
z
" clip-path="url(#p9f52197534)" style="fill: #a50026"/>
   </g>
   <g id="patch_125">
    <path d="M 170.995058 241.056 
L 172.71692 241.056 
L 172.71692 174.528 
L 170.995058 174.528 
z
" clip-path="url(#p9f52197534)" style="fill: #a50026"/>
   </g>
   <g id="patch_126">
    <path d="M 174.440708 241.056 
L 176.163007 241.056 
L 176.163007 174.528 
L 174.440708 174.528 
z
" clip-path="url(#p9f52197534)" style="fill: #a50026"/>
   </g>
   <g id="patch_127">
    <path d="M 177.886693 241.056 
L 179.609094 241.056 
L 179.609094 174.528 
L 177.886693 174.528 
z
" clip-path="url(#p9f52197534)" style="fill: #a50026"/>
   </g>
   <g id="patch_128">
    <path d="M 181.333088 241.056 
L 183.055156 241.056 
L 183.055156 174.528 
L 181.333088 174.528 
z
" clip-path="url(#p9f52197534)" style="fill: #a50026"/>
   </g>
   <g id="patch_129">
    <path d="M 184.778841 241.056 
L 186.50114 241.056 
L 186.50114 174.528 
L 184.778841 174.528 
z
" clip-path="url(#p9f52197534)" style="fill: #a50026"/>
   </g>
   <g id="patch_130">
    <path d="M 188.224928 241.056 
L 189.947329 241.056 
L 189.947329 174.528 
L 188.224928 174.528 
z
" clip-path="url(#p9f52197534)" style="fill: #a50026"/>
   </g>
   <g id="patch_131">
    <path d="M 191.671015 241.056 
L 193.393391 241.056 
L 193.393391 174.528 
L 191.671015 174.528 
z
" clip-path="url(#p9f52197534)" style="fill: #a50026"/>
   </g>
   <g id="patch_132">
    <path d="M 195.117076 241.056 
L 196.839478 241.056 
L 196.839478 174.528 
L 195.117076 174.528 
z
" clip-path="url(#p9f52197534)" style="fill: #a50026"/>
   </g>
   <g id="patch_133">
    <path d="M 198.56478 241.056 
L 200.285564 241.056 
L 200.285564 174.528 
L 198.56478 174.528 
z
" clip-path="url(#p9f52197534)" style="fill: #a50026"/>
   </g>
   <g id="patch_134">
    <path d="M 202.010097 241.056 
L 203.731651 241.056 
L 203.731651 174.528 
L 202.010097 174.528 
z
" clip-path="url(#p9f52197534)" style="fill: #a50026"/>
   </g>
   <g id="patch_135">
    <path d="M 205.455439 241.056 
L 207.177713 241.056 
L 207.177713 174.528 
L 205.455439 174.528 
z
" clip-path="url(#p9f52197534)" style="fill: #a50026"/>
   </g>
   <g id="patch_136">
    <path d="M 208.901398 241.056 
L 210.6238 241.056 
L 210.6238 174.528 
L 208.901398 174.528 
z
" clip-path="url(#p9f52197534)" style="fill: #a50026"/>
   </g>
   <g id="patch_137">
    <path d="M 212.347921 241.056 
L 214.069886 241.056 
L 214.069886 174.528 
L 212.347921 174.528 
z
" clip-path="url(#p9f52197534)" style="fill: #a50026"/>
   </g>
   <g id="patch_138">
    <path d="M 215.794214 241.056 
L 217.515973 241.056 
L 217.515973 174.528 
L 215.794214 174.528 
z
" clip-path="url(#p9f52197534)" style="fill: #a50026"/>
   </g>
   <g id="patch_139">
    <path d="M 219.239761 241.056 
L 220.962035 241.056 
L 220.962035 174.528 
L 219.239761 174.528 
z
" clip-path="url(#p9f52197534)" style="fill: #a50026"/>
   </g>
   <g id="patch_140">
    <path d="M 222.686156 241.056 
L 224.408122 241.056 
L 224.408122 174.528 
L 222.686156 174.528 
z
" clip-path="url(#p9f52197534)" style="fill: #a50026"/>
   </g>
   <g id="patch_141">
    <path d="M 226.13363 241.056 
L 227.854209 241.056 
L 227.854209 174.528 
L 226.13363 174.528 
z
" clip-path="url(#p9f52197534)" style="fill: #a50026"/>
   </g>
   <g id="patch_142">
    <path d="M 229.578202 241.056 
L 230.876422 241.056 
L 230.876422 174.528 
L 229.578202 174.528 
z
" clip-path="url(#p9f52197534)" style="fill: #a50026"/>
   </g>
   <g id="patch_143">
    <path d="M 232.593432 241.056 
L 234.315602 241.056 
L 234.315602 174.528 
L 232.593432 174.528 
z
" clip-path="url(#p9f52197534)" style="fill: #a50026"/>
   </g>
   <g id="patch_144">
    <path d="M 236.039185 241.056 
L 238.192444 241.056 
L 238.192444 174.528 
L 236.039185 174.528 
z
" clip-path="url(#p9f52197534)" style="fill: #a50026"/>
   </g>
   <g id="patch_145">
    <path d="M 239.916668 241.056 
L 241.638531 241.056 
L 241.638531 174.528 
L 239.916668 174.528 
z
" clip-path="url(#p9f52197534)" style="fill: #a50026"/>
   </g>
   <g id="patch_146">
    <path d="M 243.362755 241.056 
L 245.084592 241.056 
L 245.084592 174.528 
L 243.362755 174.528 
z
" clip-path="url(#p9f52197534)" style="fill: #a50026"/>
   </g>
   <g id="patch_147">
    <path d="M 246.808714 241.056 
L 248.530679 241.056 
L 248.530679 174.528 
L 246.808714 174.528 
z
" clip-path="url(#p9f52197534)" style="fill: #a50026"/>
   </g>
   <g id="patch_148">
    <path d="M 250.255442 241.056 
L 251.976766 241.056 
L 251.976766 174.528 
L 250.255442 174.528 
z
" clip-path="url(#p9f52197534)" style="fill: #a50026"/>
   </g>
   <g id="patch_149">
    <path d="M 253.700451 241.056 
L 255.422853 241.056 
L 255.422853 174.528 
L 253.700451 174.528 
z
" clip-path="url(#p9f52197534)" style="fill: #a50026"/>
   </g>
   <g id="patch_150">
    <path d="M 257.146949 241.056 
L 258.868914 241.056 
L 258.868914 174.528 
L 257.146949 174.528 
z
" clip-path="url(#p9f52197534)" style="fill: #a50026"/>
   </g>
   <g id="patch_151">
    <path d="M 260.592702 241.056 
L 262.315001 241.056 
L 262.315001 174.528 
L 260.592702 174.528 
z
" clip-path="url(#p9f52197534)" style="fill: #a50026"/>
   </g>
   <g id="patch_152">
    <path d="M 264.039123 241.056 
L 265.761088 241.056 
L 265.761088 174.528 
L 264.039123 174.528 
z
" clip-path="url(#p9f52197534)" style="fill: #a50026"/>
   </g>
   <g id="patch_153">
    <path d="M 267.484773 241.056 
L 269.207149 241.056 
L 269.207149 174.528 
L 267.484773 174.528 
z
" clip-path="url(#p9f52197534)" style="fill: #a50026"/>
   </g>
   <g id="patch_154">
    <path d="M 270.930963 241.056 
L 272.653133 241.056 
L 272.653133 174.528 
L 270.930963 174.528 
z
" clip-path="url(#p9f52197534)" style="fill: #a50026"/>
   </g>
   <g id="patch_155">
    <path d="M 274.37746 241.056 
L 276.099323 241.056 
L 276.099323 174.528 
L 274.37746 174.528 
z
" clip-path="url(#p9f52197534)" style="fill: #a50026"/>
   </g>
   <g id="patch_156">
    <path d="M 277.823445 241.056 
L 279.54541 241.056 
L 279.54541 174.528 
L 277.823445 174.528 
z
" clip-path="url(#p9f52197534)" style="fill: #a50026"/>
   </g>
   <g id="patch_157">
    <path d="M 281.2693 241.056 
L 282.991471 241.056 
L 282.991471 174.528 
L 281.2693 174.528 
z
" clip-path="url(#p9f52197534)" style="fill: #a50026"/>
   </g>
   <g id="patch_158">
    <path d="M 284.715285 241.056 
L 286.437558 241.056 
L 286.437558 174.528 
L 284.715285 174.528 
z
" clip-path="url(#p9f52197534)" style="fill: #a50026"/>
   </g>
   <g id="patch_159">
    <path d="M 288.161449 241.056 
L 289.883645 241.056 
L 289.883645 174.528 
L 288.161449 174.528 
z
" clip-path="url(#p9f52197534)" style="fill: #a50026"/>
   </g>
   <g id="patch_160">
    <path d="M 291.607972 241.056 
L 293.329603 241.056 
L 293.329603 174.528 
L 291.607972 174.528 
z
" clip-path="url(#p9f52197534)" style="fill: #a50026"/>
   </g>
   <g id="patch_161">
    <path d="M 295.053956 241.056 
L 296.775793 241.056 
L 296.775793 174.528 
L 295.053956 174.528 
z
" clip-path="url(#p9f52197534)" style="fill: #a50026"/>
   </g>
   <g id="patch_162">
    <path d="M 298.499709 241.056 
L 300.22188 241.056 
L 300.22188 174.528 
L 298.499709 174.528 
z
" clip-path="url(#p9f52197534)" style="fill: #a50026"/>
   </g>
   <g id="patch_163">
    <path d="M 302.376422 241.056 
L 304.96023 241.056 
L 304.96023 174.528 
L 302.376422 174.528 
z
" clip-path="url(#p9f52197534)" style="fill: #a50026"/>
   </g>
   <g id="patch_164">
    <path d="M 306.684352 241.056 
L 308.406317 241.056 
L 308.406317 174.528 
L 306.684352 174.528 
z
" clip-path="url(#p9f52197534)" style="fill: #a50026"/>
   </g>
   <g id="patch_165">
    <path d="M 310.130439 241.056 
L 311.852404 241.056 
L 311.852404 174.528 
L 310.130439 174.528 
z
" clip-path="url(#p9f52197534)" style="fill: #a50026"/>
   </g>
   <g id="patch_166">
    <path d="M 313.576526 241.056 
L 315.298491 241.056 
L 315.298491 174.528 
L 313.576526 174.528 
z
" clip-path="url(#p9f52197534)" style="fill: #a50026"/>
   </g>
   <g id="patch_167">
    <path d="M 317.022484 241.056 
L 318.744552 241.056 
L 318.744552 174.528 
L 317.022484 174.528 
z
" clip-path="url(#p9f52197534)" style="fill: #a50026"/>
   </g>
   <g id="patch_168">
    <path d="M 320.468571 241.056 
L 322.190639 241.056 
L 322.190639 174.528 
L 320.468571 174.528 
z
" clip-path="url(#p9f52197534)" style="fill: #a50026"/>
   </g>
   <g id="patch_169">
    <path d="M 323.91453 241.056 
L 325.636623 241.056 
L 325.636623 174.528 
L 323.91453 174.528 
z
" clip-path="url(#p9f52197534)" style="fill: #a50026"/>
   </g>
   <g id="patch_170">
    <path d="M 327.360617 241.056 
L 329.082787 241.056 
L 329.082787 174.528 
L 327.360617 174.528 
z
" clip-path="url(#p9f52197534)" style="fill: #a50026"/>
   </g>
   <g id="patch_171">
    <path d="M 330.806473 241.056 
L 332.528874 241.056 
L 332.528874 174.528 
L 330.806473 174.528 
z
" clip-path="url(#p9f52197534)" style="fill: #a50026"/>
   </g>
   <g id="patch_172">
    <path d="M 334.253201 241.056 
L 335.974961 241.056 
L 335.974961 174.528 
L 334.253201 174.528 
z
" clip-path="url(#p9f52197534)" style="fill: #a50026"/>
   </g>
   <g id="patch_173">
    <path d="M 338.129401 241.056 
L 340.282557 241.056 
L 340.282557 174.528 
L 338.129401 174.528 
z
" clip-path="url(#p9f52197534)" style="fill: #a50026"/>
   </g>
   <g id="patch_174">
    <path d="M 342.006242 241.056 
L 343.297889 241.056 
L 343.297889 174.528 
L 342.006242 174.528 
z
" clip-path="url(#p9f52197534)" style="fill: #a50026"/>
   </g>
   <g id="patch_175">
    <path d="M 345.021986 241.056 
L 346.743951 241.056 
L 346.743951 174.528 
L 345.021986 174.528 
z
" clip-path="url(#p9f52197534)" style="fill: #a50026"/>
   </g>
   <g id="patch_176">
    <path d="M 348.468073 241.056 
L 350.190038 241.056 
L 350.190038 174.528 
L 348.468073 174.528 
z
" clip-path="url(#p9f52197534)" style="fill: #a50026"/>
   </g>
   <g id="patch_177">
    <path d="M 351.914159 241.056 
L 353.636125 241.056 
L 353.636125 174.528 
L 351.914159 174.528 
z
" clip-path="url(#p9f52197534)" style="fill: #a50026"/>
   </g>
   <g id="patch_178">
    <path d="M 355.360246 241.056 
L 357.082211 241.056 
L 357.082211 174.528 
L 355.360246 174.528 
z
" clip-path="url(#p9f52197534)" style="fill: #a50026"/>
   </g>
   <g id="patch_179">
    <path d="M 358.805897 241.056 
L 360.52817 241.056 
L 360.52817 174.528 
L 358.805897 174.528 
z
" clip-path="url(#p9f52197534)" style="fill: #a50026"/>
   </g>
   <g id="patch_180">
    <path d="M 362.252497 241.056 
L 363.97436 241.056 
L 363.97436 174.528 
L 362.252497 174.528 
z
" clip-path="url(#p9f52197534)" style="fill: #a50026"/>
   </g>
   <g id="patch_181">
    <path d="M 365.698481 241.056 
L 367.420447 241.056 
L 367.420447 174.528 
L 365.698481 174.528 
z
" clip-path="url(#p9f52197534)" style="fill: #a50026"/>
   </g>
   <g id="patch_182">
    <path d="M 369.144774 241.056 
L 370.866508 241.056 
L 370.866508 174.528 
L 369.144774 174.528 
z
" clip-path="url(#p9f52197534)" style="fill: #a50026"/>
   </g>
   <g id="patch_183">
    <path d="M 372.59063 241.056 
L 374.312595 241.056 
L 374.312595 174.528 
L 372.59063 174.528 
z
" clip-path="url(#p9f52197534)" style="fill: #a50026"/>
   </g>
   <g id="patch_184">
    <path d="M 376.036383 241.056 
L 377.758682 241.056 
L 377.758682 174.528 
L 376.036383 174.528 
z
" clip-path="url(#p9f52197534)" style="fill: #a50026"/>
   </g>
   <g id="patch_185">
    <path d="M 379.482906 241.056 
L 381.204769 241.056 
L 381.204769 174.528 
L 379.482906 174.528 
z
" clip-path="url(#p9f52197534)" style="fill: #a50026"/>
   </g>
   <g id="patch_186">
    <path d="M 382.928326 241.056 
L 384.65083 241.056 
L 384.65083 174.528 
L 382.928326 174.528 
z
" clip-path="url(#p9f52197534)" style="fill: #a50026"/>
   </g>
   <g id="patch_187">
    <path d="M 386.375054 241.056 
L 388.096917 241.056 
L 388.096917 174.528 
L 386.375054 174.528 
z
" clip-path="url(#p9f52197534)" style="fill: #a50026"/>
   </g>
   <g id="patch_188">
    <path d="M 389.820602 241.056 
L 391.543004 241.056 
L 391.543004 174.528 
L 389.820602 174.528 
z
" clip-path="url(#p9f52197534)" style="fill: #a50026"/>
   </g>
   <g id="patch_189">
    <path d="M 393.276266 241.056 
L 394.988962 241.056 
L 394.988962 174.528 
L 393.276266 174.528 
z
" clip-path="url(#p9f52197534)" style="fill: #a50026"/>
   </g>
   <g id="patch_190">
    <path d="M 396.712776 241.056 
L 398.475231 241.056 
L 398.475231 174.528 
L 396.712776 174.528 
z
" clip-path="url(#p9f52197534)" style="fill: #a50026"/>
   </g>
   <g id="patch_191">
    <path d="M 73.832727 174.528 
L 75.365055 174.528 
L 75.365055 108 
L 73.832727 108 
z
" clip-path="url(#p9f52197534)" style="fill: #006837"/>
   </g>
   <g id="patch_192">
    <path d="M 77.089176 174.528 
L 78.811142 174.528 
L 78.811142 108 
L 77.089176 108 
z
" clip-path="url(#p9f52197534)" style="fill: #006837"/>
   </g>
   <g id="patch_193">
    <path d="M 80.535032 174.528 
L 82.257331 174.528 
L 82.257331 108 
L 80.535032 108 
z
" clip-path="url(#p9f52197534)" style="fill: #006837"/>
   </g>
   <g id="patch_194">
    <path d="M 83.981017 174.528 
L 85.703392 174.528 
L 85.703392 108 
L 83.981017 108 
z
" clip-path="url(#p9f52197534)" style="fill: #006837"/>
   </g>
   <g id="patch_195">
    <path d="M 87.427951 174.528 
L 89.149479 174.528 
L 89.149479 108 
L 87.427951 108 
z
" clip-path="url(#p9f52197534)" style="fill: #006837"/>
   </g>
   <g id="patch_196">
    <path d="M 90.873267 174.528 
L 92.595566 174.528 
L 92.595566 108 
L 90.873267 108 
z
" clip-path="url(#p9f52197534)" style="fill: #006837"/>
   </g>
   <g id="patch_197">
    <path d="M 94.319252 174.528 
L 96.041525 174.528 
L 96.041525 108 
L 94.319252 108 
z
" clip-path="url(#p9f52197534)" style="fill: #006837"/>
   </g>
   <g id="patch_198">
    <path d="M 97.765339 174.528 
L 99.487714 174.528 
L 99.487714 108 
L 97.765339 108 
z
" clip-path="url(#p9f52197534)" style="fill: #006837"/>
   </g>
   <g id="patch_199">
    <path d="M 101.2114 174.528 
L 102.933801 174.528 
L 102.933801 108 
L 101.2114 108 
z
" clip-path="url(#p9f52197534)" style="fill: #006837"/>
   </g>
   <g id="patch_200">
    <path d="M 104.657487 174.528 
L 106.379888 174.528 
L 106.379888 108 
L 104.657487 108 
z
" clip-path="url(#p9f52197534)" style="fill: #006837"/>
   </g>
   <g id="patch_201">
    <path d="M 108.103882 174.528 
L 109.825975 174.528 
L 109.825975 108 
L 108.103882 108 
z
" clip-path="url(#p9f52197534)" style="fill: #006837"/>
   </g>
   <g id="patch_202">
    <path d="M 111.549866 174.528 
L 113.272036 174.528 
L 113.272036 108 
L 111.549866 108 
z
" clip-path="url(#p9f52197534)" style="fill: #006837"/>
   </g>
   <g id="patch_203">
    <path d="M 114.995722 174.528 
L 116.718021 174.528 
L 116.718021 108 
L 114.995722 108 
z
" clip-path="url(#p9f52197534)" style="fill: #006837"/>
   </g>
   <g id="patch_204">
    <path d="M 118.441809 174.528 
L 120.16421 174.528 
L 120.16421 108 
L 118.441809 108 
z
" clip-path="url(#p9f52197534)" style="fill: #006837"/>
   </g>
   <g id="patch_205">
    <path d="M 121.887896 174.528 
L 123.610272 174.528 
L 123.610272 108 
L 121.887896 108 
z
" clip-path="url(#p9f52197534)" style="fill: #006837"/>
   </g>
   <g id="patch_206">
    <path d="M 125.334496 174.528 
L 127.056359 174.528 
L 127.056359 108 
L 125.334496 108 
z
" clip-path="url(#p9f52197534)" style="fill: #006837"/>
   </g>
   <g id="patch_207">
    <path d="M 128.780917 174.528 
L 129.640911 174.528 
L 129.640911 108 
L 128.780917 108 
z
" clip-path="url(#p9f52197534)" style="fill: #006837"/>
   </g>
   <g id="patch_208">
    <path d="M 131.367189 174.528 
L 133.086998 174.528 
L 133.086998 108 
L 131.367189 108 
z
" clip-path="url(#p9f52197534)" style="fill: #006837"/>
   </g>
   <g id="patch_209">
    <path d="M 134.811222 174.528 
L 136.532982 174.528 
L 136.532982 108 
L 134.811222 108 
z
" clip-path="url(#p9f52197534)" style="fill: #006837"/>
   </g>
   <g id="patch_210">
    <path d="M 138.256873 174.528 
L 139.979043 174.528 
L 139.979043 108 
L 138.256873 108 
z
" clip-path="url(#p9f52197534)" style="fill: #006837"/>
   </g>
   <g id="patch_211">
    <path d="M 141.70296 174.528 
L 143.42513 174.528 
L 143.42513 108 
L 141.70296 108 
z
" clip-path="url(#p9f52197534)" style="fill: #006837"/>
   </g>
   <g id="patch_212">
    <path d="M 145.149689 174.528 
L 146.87132 174.528 
L 146.87132 108 
L 145.149689 108 
z
" clip-path="url(#p9f52197534)" style="fill: #006837"/>
   </g>
   <g id="patch_213">
    <path d="M 148.595339 174.528 
L 150.317407 174.528 
L 150.317407 108 
L 148.595339 108 
z
" clip-path="url(#p9f52197534)" style="fill: #006837"/>
   </g>
   <g id="patch_214">
    <path d="M 152.041529 174.528 
L 153.763494 174.528 
L 153.763494 108 
L 152.041529 108 
z
" clip-path="url(#p9f52197534)" style="fill: #006837"/>
   </g>
   <g id="patch_215">
    <path d="M 155.487051 174.528 
L 157.209452 174.528 
L 157.209452 108 
L 155.487051 108 
z
" clip-path="url(#p9f52197534)" style="fill: #006837"/>
   </g>
   <g id="patch_216">
    <path d="M 158.933574 174.528 
L 160.655539 174.528 
L 160.655539 108 
L 158.933574 108 
z
" clip-path="url(#p9f52197534)" style="fill: #006837"/>
   </g>
   <g id="patch_217">
    <path d="M 162.379224 174.528 
L 164.101626 174.528 
L 164.101626 108 
L 162.379224 108 
z
" clip-path="url(#p9f52197534)" style="fill: #006837"/>
   </g>
   <g id="patch_218">
    <path d="M 165.825851 174.528 
L 167.54779 174.528 
L 167.54779 108 
L 165.825851 108 
z
" clip-path="url(#p9f52197534)" style="fill: #006837"/>
   </g>
   <g id="patch_219">
    <path d="M 169.271809 174.528 
L 170.993877 174.528 
L 170.993877 108 
L 169.271809 108 
z
" clip-path="url(#p9f52197534)" style="fill: #006837"/>
   </g>
   <g id="patch_220">
    <path d="M 172.717562 174.528 
L 174.439964 174.528 
L 174.439964 108 
L 172.717562 108 
z
" clip-path="url(#p9f52197534)" style="fill: #006837"/>
   </g>
   <g id="patch_221">
    <path d="M 176.163547 174.528 
L 177.885922 174.528 
L 177.885922 108 
L 176.163547 108 
z
" clip-path="url(#p9f52197534)" style="fill: #006837"/>
   </g>
   <g id="patch_222">
    <path d="M 179.609608 174.528 
L 181.332009 174.528 
L 181.332009 108 
L 179.609608 108 
z
" clip-path="url(#p9f52197534)" style="fill: #006837"/>
   </g>
   <g id="patch_223">
    <path d="M 183.056234 174.528 
L 184.778199 174.528 
L 184.778199 108 
L 183.056234 108 
z
" clip-path="url(#p9f52197534)" style="fill: #006837"/>
   </g>
   <g id="patch_224">
    <path d="M 186.501679 174.528 
L 188.224286 174.528 
L 188.224286 108 
L 186.501679 108 
z
" clip-path="url(#p9f52197534)" style="fill: #006837"/>
   </g>
   <g id="patch_225">
    <path d="M 189.948408 174.528 
L 191.670373 174.528 
L 191.670373 108 
L 189.948408 108 
z
" clip-path="url(#p9f52197534)" style="fill: #006837"/>
   </g>
   <g id="patch_226">
    <path d="M 193.39393 174.528 
L 195.116434 174.528 
L 195.116434 108 
L 193.39393 108 
z
" clip-path="url(#p9f52197534)" style="fill: #006837"/>
   </g>
   <g id="patch_227">
    <path d="M 196.840017 174.528 
L 198.562418 174.528 
L 198.562418 108 
L 196.840017 108 
z
" clip-path="url(#p9f52197534)" style="fill: #006837"/>
   </g>
   <g id="patch_228">
    <path d="M 200.286412 174.528 
L 202.008505 174.528 
L 202.008505 108 
L 200.286412 108 
z
" clip-path="url(#p9f52197534)" style="fill: #006837"/>
   </g>
   <g id="patch_229">
    <path d="M 203.732062 174.528 
L 205.454566 174.528 
L 205.454566 108 
L 203.732062 108 
z
" clip-path="url(#p9f52197534)" style="fill: #006837"/>
   </g>
   <g id="patch_230">
    <path d="M 207.178688 174.528 
L 208.900756 174.528 
L 208.900756 108 
L 207.178688 108 
z
" clip-path="url(#p9f52197534)" style="fill: #006837"/>
   </g>
   <g id="patch_231">
    <path d="M 210.624339 174.528 
L 212.346843 174.528 
L 212.346843 108 
L 210.624339 108 
z
" clip-path="url(#p9f52197534)" style="fill: #006837"/>
   </g>
   <g id="patch_232">
    <path d="M 214.070862 174.528 
L 215.79293 174.528 
L 215.79293 108 
L 214.070862 108 
z
" clip-path="url(#p9f52197534)" style="fill: #006837"/>
   </g>
   <g id="patch_233">
    <path d="M 217.517026 174.528 
L 219.238991 174.528 
L 219.238991 108 
L 217.517026 108 
z
" clip-path="url(#p9f52197534)" style="fill: #006837"/>
   </g>
   <g id="patch_234">
    <path d="M 220.962574 174.528 
L 222.684975 174.528 
L 222.684975 108 
L 220.962574 108 
z
" clip-path="url(#p9f52197534)" style="fill: #006837"/>
   </g>
   <g id="patch_235">
    <path d="M 224.408558 174.528 
L 226.131062 174.528 
L 226.131062 108 
L 224.408558 108 
z
" clip-path="url(#p9f52197534)" style="fill: #006837"/>
   </g>
   <g id="patch_236">
    <path d="M 227.85485 174.528 
L 229.577124 174.528 
L 229.577124 108 
L 227.85485 108 
z
" clip-path="url(#p9f52197534)" style="fill: #006837"/>
   </g>
   <g id="patch_237">
    <path d="M 231.300937 174.528 
L 233.023313 174.528 
L 233.023313 108 
L 231.300937 108 
z
" clip-path="url(#p9f52197534)" style="fill: #006837"/>
   </g>
   <g id="patch_238">
    <path d="M 234.746896 174.528 
L 236.4694 174.528 
L 236.4694 108 
L 234.746896 108 
z
" clip-path="url(#p9f52197534)" style="fill: #006837"/>
   </g>
   <g id="patch_239">
    <path d="M 238.623737 174.528 
L 240.346139 174.528 
L 240.346139 108 
L 238.623737 108 
z
" clip-path="url(#p9f52197534)" style="fill: #006837"/>
   </g>
   <g id="patch_240">
    <path d="M 242.070261 174.528 
L 243.7922 174.528 
L 243.7922 108 
L 242.070261 108 
z
" clip-path="url(#p9f52197534)" style="fill: #006837"/>
   </g>
   <g id="patch_241">
    <path d="M 245.515783 174.528 
L 247.238287 174.528 
L 247.238287 108 
L 245.515783 108 
z
" clip-path="url(#p9f52197534)" style="fill: #006837"/>
   </g>
   <g id="patch_242">
    <path d="M 248.962409 174.528 
L 250.684374 174.528 
L 250.684374 108 
L 248.962409 108 
z
" clip-path="url(#p9f52197534)" style="fill: #006837"/>
   </g>
   <g id="patch_243">
    <path d="M 252.408059 174.528 
L 254.130564 174.528 
L 254.130564 108 
L 252.408059 108 
z
" clip-path="url(#p9f52197534)" style="fill: #006837"/>
   </g>
   <g id="patch_244">
    <path d="M 255.854557 174.528 
L 257.57665 174.528 
L 257.57665 108 
L 255.854557 108 
z
" clip-path="url(#p9f52197534)" style="fill: #006837"/>
   </g>
   <g id="patch_245">
    <path d="M 259.300207 174.528 
L 261.022712 174.528 
L 261.022712 108 
L 259.300207 108 
z
" clip-path="url(#p9f52197534)" style="fill: #006837"/>
   </g>
   <g id="patch_246">
    <path d="M 262.746628 174.528 
L 264.468696 174.528 
L 264.468696 108 
L 262.746628 108 
z
" clip-path="url(#p9f52197534)" style="fill: #006837"/>
   </g>
   <g id="patch_247">
    <path d="M 266.192818 174.528 
L 267.914783 174.528 
L 267.914783 108 
L 266.192818 108 
z
" clip-path="url(#p9f52197534)" style="fill: #006837"/>
   </g>
   <g id="patch_248">
    <path d="M 269.639007 174.528 
L 271.360844 174.528 
L 271.360844 108 
L 269.639007 108 
z
" clip-path="url(#p9f52197534)" style="fill: #006837"/>
   </g>
   <g id="patch_249">
    <path d="M 273.084863 174.528 
L 274.807034 174.528 
L 274.807034 108 
L 273.084863 108 
z
" clip-path="url(#p9f52197534)" style="fill: #006837"/>
   </g>
   <g id="patch_250">
    <path d="M 276.530616 174.528 
L 278.253121 174.528 
L 278.253121 108 
L 276.530616 108 
z
" clip-path="url(#p9f52197534)" style="fill: #006837"/>
   </g>
   <g id="patch_251">
    <path d="M 279.976601 174.528 
L 281.699208 174.528 
L 281.699208 108 
L 279.976601 108 
z
" clip-path="url(#p9f52197534)" style="fill: #006837"/>
   </g>
   <g id="patch_252">
    <path d="M 283.422996 174.528 
L 285.145166 174.528 
L 285.145166 108 
L 283.422996 108 
z
" clip-path="url(#p9f52197534)" style="fill: #006837"/>
   </g>
   <g id="patch_253">
    <path d="M 286.869288 174.528 
L 288.591253 174.528 
L 288.591253 108 
L 286.869288 108 
z
" clip-path="url(#p9f52197534)" style="fill: #006837"/>
   </g>
   <g id="patch_254">
    <path d="M 290.315375 174.528 
L 292.03734 174.528 
L 292.03734 108 
L 290.315375 108 
z
" clip-path="url(#p9f52197534)" style="fill: #006837"/>
   </g>
   <g id="patch_255">
    <path d="M 293.761565 174.528 
L 295.48353 174.528 
L 295.48353 108 
L 293.761565 108 
z
" clip-path="url(#p9f52197534)" style="fill: #006837"/>
   </g>
   <g id="patch_256">
    <path d="M 297.207626 174.528 
L 298.929591 174.528 
L 298.929591 108 
L 297.207626 108 
z
" clip-path="url(#p9f52197534)" style="fill: #006837"/>
   </g>
   <g id="patch_257">
    <path d="M 300.65361 174.528 
L 302.375678 174.528 
L 302.375678 108 
L 300.65361 108 
z
" clip-path="url(#p9f52197534)" style="fill: #006837"/>
   </g>
   <g id="patch_258">
    <path d="M 304.09926 174.528 
L 305.821765 174.528 
L 305.821765 108 
L 304.09926 108 
z
" clip-path="url(#p9f52197534)" style="fill: #006837"/>
   </g>
   <g id="patch_259">
    <path d="M 307.545553 174.528 
L 309.267723 174.528 
L 309.267723 108 
L 307.545553 108 
z
" clip-path="url(#p9f52197534)" style="fill: #006837"/>
   </g>
   <g id="patch_260">
    <path d="M 310.991306 174.528 
L 312.71381 174.528 
L 312.71381 108 
L 310.991306 108 
z
" clip-path="url(#p9f52197534)" style="fill: #006837"/>
   </g>
   <g id="patch_261">
    <path d="M 314.437496 174.528 
L 316.16 174.528 
L 316.16 108 
L 314.437496 108 
z
" clip-path="url(#p9f52197534)" style="fill: #006837"/>
   </g>
   <g id="patch_262">
    <path d="M 317.883582 174.528 
L 319.606087 174.528 
L 319.606087 108 
L 317.883582 108 
z
" clip-path="url(#p9f52197534)" style="fill: #006837"/>
   </g>
   <g id="patch_263">
    <path d="M 321.330209 174.528 
L 323.052148 174.528 
L 323.052148 108 
L 321.330209 108 
z
" clip-path="url(#p9f52197534)" style="fill: #006837"/>
   </g>
   <g id="patch_264">
    <path d="M 324.776167 174.528 
L 326.498132 174.528 
L 326.498132 108 
L 324.776167 108 
z
" clip-path="url(#p9f52197534)" style="fill: #006837"/>
   </g>
   <g id="patch_265">
    <path d="M 328.222254 174.528 
L 329.944219 174.528 
L 329.944219 108 
L 328.222254 108 
z
" clip-path="url(#p9f52197534)" style="fill: #006837"/>
   </g>
   <g id="patch_266">
    <path d="M 331.668341 174.528 
L 333.390409 174.528 
L 333.390409 108 
L 331.668341 108 
z
" clip-path="url(#p9f52197534)" style="fill: #006837"/>
   </g>
   <g id="patch_267">
    <path d="M 335.113966 174.528 
L 336.836367 174.528 
L 336.836367 108 
L 335.113966 108 
z
" clip-path="url(#p9f52197534)" style="fill: #006837"/>
   </g>
   <g id="patch_268">
    <path d="M 338.560489 174.528 
L 340.282557 174.528 
L 340.282557 108 
L 338.560489 108 
z
" clip-path="url(#p9f52197534)" style="fill: #006837"/>
   </g>
   <g id="patch_269">
    <path d="M 342.006576 174.528 
L 343.728644 174.528 
L 343.728644 108 
L 342.006576 108 
z
" clip-path="url(#p9f52197534)" style="fill: #006837"/>
   </g>
   <g id="patch_270">
    <path d="M 345.452637 174.528 
L 347.174602 174.528 
L 347.174602 108 
L 345.452637 108 
z
" clip-path="url(#p9f52197534)" style="fill: #006837"/>
   </g>
   <g id="patch_271">
    <path d="M 348.898416 174.528 
L 350.620792 174.528 
L 350.620792 108 
L 348.898416 108 
z
" clip-path="url(#p9f52197534)" style="fill: #006837"/>
   </g>
   <g id="patch_272">
    <path d="M 352.344375 174.528 
L 354.066776 174.528 
L 354.066776 108 
L 352.344375 108 
z
" clip-path="url(#p9f52197534)" style="fill: #006837"/>
   </g>
   <g id="patch_273">
    <path d="M 355.790898 174.528 
L 357.512863 174.528 
L 357.512863 108 
L 355.790898 108 
z
" clip-path="url(#p9f52197534)" style="fill: #006837"/>
   </g>
   <g id="patch_274">
    <path d="M 359.236959 174.528 
L 360.959027 174.528 
L 360.959027 108 
L 359.236959 108 
z
" clip-path="url(#p9f52197534)" style="fill: #006837"/>
   </g>
   <g id="patch_275">
    <path d="M 362.68261 174.528 
L 364.405114 174.528 
L 364.405114 108 
L 362.68261 108 
z
" clip-path="url(#p9f52197534)" style="fill: #006837"/>
   </g>
   <g id="patch_276">
    <path d="M 366.128697 174.528 
L 367.851201 174.528 
L 367.851201 108 
L 366.128697 108 
z
" clip-path="url(#p9f52197534)" style="fill: #006837"/>
   </g>
   <g id="patch_277">
    <path d="M 369.57522 174.528 
L 371.297288 174.528 
L 371.297288 108 
L 369.57522 108 
z
" clip-path="url(#p9f52197534)" style="fill: #006837"/>
   </g>
   <g id="patch_278">
    <path d="M 373.021281 174.528 
L 374.743246 174.528 
L 374.743246 108 
L 373.021281 108 
z
" clip-path="url(#p9f52197534)" style="fill: #006837"/>
   </g>
   <g id="patch_279">
    <path d="M 376.466932 174.528 
L 378.189333 174.528 
L 378.189333 108 
L 376.466932 108 
z
" clip-path="url(#p9f52197534)" style="fill: #006837"/>
   </g>
   <g id="patch_280">
    <path d="M 379.912916 174.528 
L 381.635523 174.528 
L 381.635523 108 
L 379.912916 108 
z
" clip-path="url(#p9f52197534)" style="fill: #006837"/>
   </g>
   <g id="patch_281">
    <path d="M 383.359516 174.528 
L 385.08161 174.528 
L 385.08161 108 
L 383.359516 108 
z
" clip-path="url(#p9f52197534)" style="fill: #006837"/>
   </g>
   <g id="patch_282">
    <path d="M 386.805706 174.528 
L 388.527569 174.528 
L 388.527569 108 
L 386.805706 108 
z
" clip-path="url(#p9f52197534)" style="fill: #006837"/>
   </g>
   <g id="patch_283">
    <path d="M 390.251254 174.528 
L 391.973758 174.528 
L 391.973758 108 
L 390.251254 108 
z
" clip-path="url(#p9f52197534)" style="fill: #006837"/>
   </g>
   <g id="patch_284">
    <path d="M 393.69788 174.528 
L 395.419742 174.528 
L 395.419742 108 
L 393.69788 108 
z
" clip-path="url(#p9f52197534)" style="fill: #006837"/>
   </g>
   <g id="patch_285">
    <path d="M 75.418357 108 
L 77.088303 108 
L 77.088303 41.472 
L 75.418357 41.472 
z
" clip-path="url(#p9f52197534)" style="fill: #006837"/>
   </g>
   <g id="patch_286">
    <path d="M 78.811886 108 
L 80.534288 108 
L 80.534288 41.472 
L 78.811886 41.472 
z
" clip-path="url(#p9f52197534)" style="fill: #006837"/>
   </g>
   <g id="patch_287">
    <path d="M 82.257973 108 
L 83.980375 108 
L 83.980375 41.472 
L 82.257973 41.472 
z
" clip-path="url(#p9f52197534)" style="fill: #006837"/>
   </g>
   <g id="patch_288">
    <path d="M 85.704163 108 
L 87.426436 108 
L 87.426436 41.472 
L 85.704163 41.472 
z
" clip-path="url(#p9f52197534)" style="fill: #006837"/>
   </g>
   <g id="patch_289">
    <path d="M 89.150121 108 
L 90.872523 108 
L 90.872523 41.472 
L 89.150121 41.472 
z
" clip-path="url(#p9f52197534)" style="fill: #006837"/>
   </g>
   <g id="patch_290">
    <path d="M 92.596208 108 
L 94.31861 108 
L 94.31861 41.472 
L 92.596208 41.472 
z
" clip-path="url(#p9f52197534)" style="fill: #006837"/>
   </g>
   <g id="patch_291">
    <path d="M 96.042295 108 
L 97.764568 108 
L 97.764568 41.472 
L 96.042295 41.472 
z
" clip-path="url(#p9f52197534)" style="fill: #006837"/>
   </g>
   <g id="patch_292">
    <path d="M 99.488356 108 
L 101.210758 108 
L 101.210758 41.472 
L 99.488356 41.472 
z
" clip-path="url(#p9f52197534)" style="fill: #006837"/>
   </g>
   <g id="patch_293">
    <path d="M 102.934443 108 
L 104.656845 108 
L 104.656845 41.472 
L 102.934443 41.472 
z
" clip-path="url(#p9f52197534)" style="fill: #006837"/>
   </g>
   <g id="patch_294">
    <path d="M 106.38053 108 
L 108.102932 108 
L 108.102932 41.472 
L 106.38053 41.472 
z
" clip-path="url(#p9f52197534)" style="fill: #006837"/>
   </g>
   <g id="patch_295">
    <path d="M 109.826617 108 
L 111.548993 108 
L 111.548993 41.472 
L 109.826617 41.472 
z
" clip-path="url(#p9f52197534)" style="fill: #006837"/>
   </g>
   <g id="patch_296">
    <path d="M 113.272678 108 
L 114.99508 108 
L 114.99508 41.472 
L 113.272678 41.472 
z
" clip-path="url(#p9f52197534)" style="fill: #006837"/>
   </g>
   <g id="patch_297">
    <path d="M 116.718765 108 
L 118.441064 108 
L 118.441064 41.472 
L 116.718765 41.472 
z
" clip-path="url(#p9f52197534)" style="fill: #006837"/>
   </g>
   <g id="patch_298">
    <path d="M 120.164852 108 
L 121.887125 108 
L 121.887125 41.472 
L 120.164852 41.472 
z
" clip-path="url(#p9f52197534)" style="fill: #006837"/>
   </g>
   <g id="patch_299">
    <path d="M 123.611145 108 
L 125.333315 108 
L 125.333315 41.472 
L 123.611145 41.472 
z
" clip-path="url(#p9f52197534)" style="fill: #006837"/>
   </g>
   <g id="patch_300">
    <path d="M 127.057129 108 
L 128.779402 108 
L 128.779402 41.472 
L 127.057129 41.472 
z
" clip-path="url(#p9f52197534)" style="fill: #006837"/>
   </g>
   <g id="patch_301">
    <path d="M 129.643196 108 
L 131.363954 108 
L 131.363954 41.472 
L 129.643196 41.472 
z
" clip-path="url(#p9f52197534)" style="fill: #006837"/>
   </g>
   <g id="patch_302">
    <path d="M 133.087768 108 
L 134.810041 108 
L 134.810041 41.472 
L 133.087768 41.472 
z
" clip-path="url(#p9f52197534)" style="fill: #006837"/>
   </g>
   <g id="patch_303">
    <path d="M 136.534266 108 
L 138.256128 108 
L 138.256128 41.472 
L 136.534266 41.472 
z
" clip-path="url(#p9f52197534)" style="fill: #006837"/>
   </g>
   <g id="patch_304">
    <path d="M 139.980455 108 
L 141.702215 108 
L 141.702215 41.472 
L 139.980455 41.472 
z
" clip-path="url(#p9f52197534)" style="fill: #006837"/>
   </g>
   <g id="patch_305">
    <path d="M 143.426542 108 
L 145.148276 108 
L 145.148276 41.472 
L 143.426542 41.472 
z
" clip-path="url(#p9f52197534)" style="fill: #006837"/>
   </g>
   <g id="patch_306">
    <path d="M 146.871859 108 
L 148.594363 108 
L 148.594363 41.472 
L 146.871859 41.472 
z
" clip-path="url(#p9f52197534)" style="fill: #006837"/>
   </g>
   <g id="patch_307">
    <path d="M 150.318485 108 
L 152.04045 108 
L 152.04045 41.472 
L 150.318485 41.472 
z
" clip-path="url(#p9f52197534)" style="fill: #006837"/>
   </g>
   <g id="patch_308">
    <path d="M 153.764136 108 
L 155.486409 108 
L 155.486409 41.472 
L 153.764136 41.472 
z
" clip-path="url(#p9f52197534)" style="fill: #006837"/>
   </g>
   <g id="patch_309">
    <path d="M 157.210094 108 
L 158.932598 108 
L 158.932598 41.472 
L 157.210094 41.472 
z
" clip-path="url(#p9f52197534)" style="fill: #006837"/>
   </g>
   <g id="patch_310">
    <path d="M 160.656181 108 
L 162.378583 108 
L 162.378583 41.472 
L 160.656181 41.472 
z
" clip-path="url(#p9f52197534)" style="fill: #006837"/>
   </g>
   <g id="patch_311">
    <path d="M 164.102268 108 
L 165.824772 108 
L 165.824772 41.472 
L 164.102268 41.472 
z
" clip-path="url(#p9f52197534)" style="fill: #006837"/>
   </g>
   <g id="patch_312">
    <path d="M 167.548868 108 
L 169.270833 108 
L 169.270833 41.472 
L 167.548868 41.472 
z
" clip-path="url(#p9f52197534)" style="fill: #006837"/>
   </g>
   <g id="patch_313">
    <path d="M 170.994416 108 
L 172.71692 108 
L 172.71692 41.472 
L 170.994416 41.472 
z
" clip-path="url(#p9f52197534)" style="fill: #006837"/>
   </g>
   <g id="patch_314">
    <path d="M 174.441042 108 
L 176.162905 108 
L 176.162905 41.472 
L 174.441042 41.472 
z
" clip-path="url(#p9f52197534)" style="fill: #006837"/>
   </g>
   <g id="patch_315">
    <path d="M 177.887001 108 
L 179.608966 108 
L 179.608966 41.472 
L 177.887001 41.472 
z
" clip-path="url(#p9f52197534)" style="fill: #006837"/>
   </g>
   <g id="patch_316">
    <path d="M 181.332549 108 
L 183.055053 108 
L 183.055053 41.472 
L 181.332549 41.472 
z
" clip-path="url(#p9f52197534)" style="fill: #006837"/>
   </g>
   <g id="patch_317">
    <path d="M 184.779175 108 
L 186.50114 108 
L 186.50114 41.472 
L 184.779175 41.472 
z
" clip-path="url(#p9f52197534)" style="fill: #006837"/>
   </g>
   <g id="patch_318">
    <path d="M 188.225262 108 
L 189.947329 108 
L 189.947329 41.472 
L 188.225262 41.472 
z
" clip-path="url(#p9f52197534)" style="fill: #006837"/>
   </g>
   <g id="patch_319">
    <path d="M 191.671323 108 
L 193.393391 108 
L 193.393391 41.472 
L 191.671323 41.472 
z
" clip-path="url(#p9f52197534)" style="fill: #006837"/>
   </g>
   <g id="patch_320">
    <path d="M 195.117512 108 
L 196.839375 108 
L 196.839375 41.472 
L 195.117512 41.472 
z
" clip-path="url(#p9f52197534)" style="fill: #006837"/>
   </g>
   <g id="patch_321">
    <path d="M 198.56306 108 
L 200.285462 108 
L 200.285462 41.472 
L 198.56306 41.472 
z
" clip-path="url(#p9f52197534)" style="fill: #006837"/>
   </g>
   <g id="patch_322">
    <path d="M 202.009044 108 
L 203.731523 108 
L 203.731523 41.472 
L 202.009044 41.472 
z
" clip-path="url(#p9f52197534)" style="fill: #006837"/>
   </g>
   <g id="patch_323">
    <path d="M 205.455645 108 
L 207.177713 108 
L 207.177713 41.472 
L 205.455645 41.472 
z
" clip-path="url(#p9f52197534)" style="fill: #006837"/>
   </g>
   <g id="patch_324">
    <path d="M 208.901732 108 
L 210.6238 108 
L 210.6238 41.472 
L 208.901732 41.472 
z
" clip-path="url(#p9f52197534)" style="fill: #006837"/>
   </g>
   <g id="patch_325">
    <path d="M 212.347382 108 
L 214.069886 108 
L 214.069886 41.472 
L 212.347382 41.472 
z
" clip-path="url(#p9f52197534)" style="fill: #006837"/>
   </g>
   <g id="patch_326">
    <path d="M 215.794008 108 
L 217.515973 108 
L 217.515973 41.472 
L 215.794008 41.472 
z
" clip-path="url(#p9f52197534)" style="fill: #006837"/>
   </g>
   <g id="patch_327">
    <path d="M 219.24007 108 
L 220.961932 108 
L 220.961932 41.472 
L 219.24007 41.472 
z
" clip-path="url(#p9f52197534)" style="fill: #006837"/>
   </g>
   <g id="patch_328">
    <path d="M 222.68572 108 
L 224.408019 108 
L 224.408019 41.472 
L 222.68572 41.472 
z
" clip-path="url(#p9f52197534)" style="fill: #006837"/>
   </g>
   <g id="patch_329">
    <path d="M 226.131704 108 
L 227.854209 108 
L 227.854209 41.472 
L 226.131704 41.472 
z
" clip-path="url(#p9f52197534)" style="fill: #006837"/>
   </g>
   <g id="patch_330">
    <path d="M 229.577791 108 
L 231.30027 108 
L 231.30027 41.472 
L 229.577791 41.472 
z
" clip-path="url(#p9f52197534)" style="fill: #006837"/>
   </g>
   <g id="patch_331">
    <path d="M 233.023955 108 
L 234.746357 108 
L 234.746357 41.472 
L 233.023955 41.472 
z
" clip-path="url(#p9f52197534)" style="fill: #006837"/>
   </g>
   <g id="patch_332">
    <path d="M 236.470376 108 
L 238.623198 108 
L 238.623198 41.472 
L 236.470376 41.472 
z
" clip-path="url(#p9f52197534)" style="fill: #006837"/>
   </g>
   <g id="patch_333">
    <path d="M 240.346781 108 
L 242.069182 108 
L 242.069182 41.472 
L 240.346781 41.472 
z
" clip-path="url(#p9f52197534)" style="fill: #006837"/>
   </g>
   <g id="patch_334">
    <path d="M 243.792868 108 
L 245.515244 108 
L 245.515244 41.472 
L 243.792868 41.472 
z
" clip-path="url(#p9f52197534)" style="fill: #006837"/>
   </g>
   <g id="patch_335">
    <path d="M 247.238826 108 
L 248.96133 108 
L 248.96133 41.472 
L 247.238826 41.472 
z
" clip-path="url(#p9f52197534)" style="fill: #006837"/>
   </g>
   <g id="patch_336">
    <path d="M 250.685016 108 
L 252.40752 108 
L 252.40752 41.472 
L 250.685016 41.472 
z
" clip-path="url(#p9f52197534)" style="fill: #006837"/>
   </g>
   <g id="patch_337">
    <path d="M 254.131103 108 
L 255.853607 108 
L 255.853607 41.472 
L 254.131103 41.472 
z
" clip-path="url(#p9f52197534)" style="fill: #006837"/>
   </g>
   <g id="patch_338">
    <path d="M 257.5776 108 
L 259.299668 108 
L 259.299668 41.472 
L 257.5776 41.472 
z
" clip-path="url(#p9f52197534)" style="fill: #006837"/>
   </g>
   <g id="patch_339">
    <path d="M 261.023687 108 
L 262.745652 108 
L 262.745652 41.472 
L 261.023687 41.472 
z
" clip-path="url(#p9f52197534)" style="fill: #006837"/>
   </g>
   <g id="patch_340">
    <path d="M 264.469338 108 
L 266.191739 108 
L 266.191739 41.472 
L 264.469338 41.472 
z
" clip-path="url(#p9f52197534)" style="fill: #006837"/>
   </g>
   <g id="patch_341">
    <path d="M 267.915425 108 
L 269.637801 108 
L 269.637801 41.472 
L 267.915425 41.472 
z
" clip-path="url(#p9f52197534)" style="fill: #006837"/>
   </g>
   <g id="patch_342">
    <path d="M 271.361486 108 
L 273.08399 108 
L 273.08399 41.472 
L 271.361486 41.472 
z
" clip-path="url(#p9f52197534)" style="fill: #006837"/>
   </g>
   <g id="patch_343">
    <path d="M 274.807573 108 
L 276.530077 108 
L 276.530077 41.472 
L 274.807573 41.472 
z
" clip-path="url(#p9f52197534)" style="fill: #006837"/>
   </g>
   <g id="patch_344">
    <path d="M 278.25366 108 
L 279.976164 108 
L 279.976164 41.472 
L 278.25366 41.472 
z
" clip-path="url(#p9f52197534)" style="fill: #006837"/>
   </g>
   <g id="patch_345">
    <path d="M 281.700158 108 
L 283.422123 108 
L 283.422123 41.472 
L 281.700158 41.472 
z
" clip-path="url(#p9f52197534)" style="fill: #006837"/>
   </g>
   <g id="patch_346">
    <path d="M 285.146347 108 
L 286.868312 108 
L 286.868312 41.472 
L 285.146347 41.472 
z
" clip-path="url(#p9f52197534)" style="fill: #006837"/>
   </g>
   <g id="patch_347">
    <path d="M 288.591895 108 
L 290.314399 108 
L 290.314399 41.472 
L 288.591895 41.472 
z
" clip-path="url(#p9f52197534)" style="fill: #006837"/>
   </g>
   <g id="patch_348">
    <path d="M 292.038521 108 
L 293.760383 108 
L 293.760383 41.472 
L 292.038521 41.472 
z
" clip-path="url(#p9f52197534)" style="fill: #006837"/>
   </g>
   <g id="patch_349">
    <path d="M 295.484069 108 
L 297.206547 108 
L 297.206547 41.472 
L 295.484069 41.472 
z
" clip-path="url(#p9f52197534)" style="fill: #006837"/>
   </g>
   <g id="patch_350">
    <path d="M 298.930669 108 
L 300.652634 108 
L 300.652634 41.472 
L 298.930669 41.472 
z
" clip-path="url(#p9f52197534)" style="fill: #006837"/>
   </g>
   <g id="patch_351">
    <path d="M 302.376756 108 
L 304.098721 108 
L 304.098721 41.472 
L 302.376756 41.472 
z
" clip-path="url(#p9f52197534)" style="fill: #006837"/>
   </g>
   <g id="patch_352">
    <path d="M 305.82274 108 
L 307.544808 108 
L 307.544808 41.472 
L 305.82274 41.472 
z
" clip-path="url(#p9f52197534)" style="fill: #006837"/>
   </g>
   <g id="patch_353">
    <path d="M 309.268365 108 
L 310.990767 108 
L 310.990767 41.472 
L 309.268365 41.472 
z
" clip-path="url(#p9f52197534)" style="fill: #006837"/>
   </g>
   <g id="patch_354">
    <path d="M 312.714349 108 
L 314.436854 108 
L 314.436854 41.472 
L 312.714349 41.472 
z
" clip-path="url(#p9f52197534)" style="fill: #006837"/>
   </g>
   <g id="patch_355">
    <path d="M 316.160873 108 
L 317.883043 108 
L 317.883043 41.472 
L 316.160873 41.472 
z
" clip-path="url(#p9f52197534)" style="fill: #006837"/>
   </g>
   <g id="patch_356">
    <path d="M 319.607037 108 
L 321.32913 108 
L 321.32913 41.472 
L 319.607037 41.472 
z
" clip-path="url(#p9f52197534)" style="fill: #006837"/>
   </g>
   <g id="patch_357">
    <path d="M 323.053124 108 
L 324.775191 108 
L 324.775191 41.472 
L 323.053124 41.472 
z
" clip-path="url(#p9f52197534)" style="fill: #006837"/>
   </g>
   <g id="patch_358">
    <path d="M 326.498774 108 
L 328.221176 108 
L 328.221176 41.472 
L 326.498774 41.472 
z
" clip-path="url(#p9f52197534)" style="fill: #006837"/>
   </g>
   <g id="patch_359">
    <path d="M 329.944861 108 
L 331.667263 108 
L 331.667263 41.472 
L 329.944861 41.472 
z
" clip-path="url(#p9f52197534)" style="fill: #006837"/>
   </g>
   <g id="patch_360">
    <path d="M 333.391359 108 
L 335.113324 108 
L 335.113324 41.472 
L 333.391359 41.472 
z
" clip-path="url(#p9f52197534)" style="fill: #006837"/>
   </g>
   <g id="patch_361">
    <path d="M 336.837009 108 
L 338.559514 108 
L 338.559514 41.472 
L 336.837009 41.472 
z
" clip-path="url(#p9f52197534)" style="fill: #006837"/>
   </g>
   <g id="patch_362">
    <path d="M 340.283096 108 
L 342.0056 108 
L 342.0056 41.472 
L 340.283096 41.472 
z
" clip-path="url(#p9f52197534)" style="fill: #006837"/>
   </g>
   <g id="patch_363">
    <path d="M 343.729183 108 
L 345.451559 108 
L 345.451559 41.472 
L 343.729183 41.472 
z
" clip-path="url(#p9f52197534)" style="fill: #006837"/>
   </g>
   <g id="patch_364">
    <path d="M 347.17527 108 
L 348.897646 108 
L 348.897646 41.472 
L 347.17527 41.472 
z
" clip-path="url(#p9f52197534)" style="fill: #006837"/>
   </g>
   <g id="patch_365">
    <path d="M 350.62187 108 
L 352.343733 108 
L 352.343733 41.472 
L 350.62187 41.472 
z
" clip-path="url(#p9f52197534)" style="fill: #006837"/>
   </g>
   <g id="patch_366">
    <path d="M 354.067418 108 
L 355.789922 108 
L 355.789922 41.472 
L 354.067418 41.472 
z
" clip-path="url(#p9f52197534)" style="fill: #006837"/>
   </g>
   <g id="patch_367">
    <path d="M 357.513505 108 
L 359.236009 108 
L 359.236009 41.472 
L 357.513505 41.472 
z
" clip-path="url(#p9f52197534)" style="fill: #006837"/>
   </g>
   <g id="patch_368">
    <path d="M 360.960106 108 
L 362.682071 108 
L 362.682071 41.472 
L 360.960106 41.472 
z
" clip-path="url(#p9f52197534)" style="fill: #006837"/>
   </g>
   <g id="patch_369">
    <path d="M 364.40609 108 
L 366.128158 108 
L 366.128158 41.472 
L 364.40609 41.472 
z
" clip-path="url(#p9f52197534)" style="fill: #006837"/>
   </g>
   <g id="patch_370">
    <path d="M 367.852177 108 
L 369.574142 108 
L 369.574142 41.472 
L 367.852177 41.472 
z
" clip-path="url(#p9f52197534)" style="fill: #006837"/>
   </g>
   <g id="patch_371">
    <path d="M 371.298366 108 
L 373.020306 108 
L 373.020306 41.472 
L 371.298366 41.472 
z
" clip-path="url(#p9f52197534)" style="fill: #006837"/>
   </g>
   <g id="patch_372">
    <path d="M 374.743888 108 
L 376.466393 108 
L 376.466393 41.472 
L 374.743888 41.472 
z
" clip-path="url(#p9f52197534)" style="fill: #006837"/>
   </g>
   <g id="patch_373">
    <path d="M 378.189975 108 
L 379.912377 108 
L 379.912377 41.472 
L 378.189975 41.472 
z
" clip-path="url(#p9f52197534)" style="fill: #006837"/>
   </g>
   <g id="patch_374">
    <path d="M 381.636062 108 
L 383.358567 108 
L 383.358567 41.472 
L 381.636062 41.472 
z
" clip-path="url(#p9f52197534)" style="fill: #006837"/>
   </g>
   <g id="patch_375">
    <path d="M 385.082894 108 
L 386.804628 108 
L 386.804628 41.472 
L 385.082894 41.472 
z
" clip-path="url(#p9f52197534)" style="fill: #006837"/>
   </g>
   <g id="patch_376">
    <path d="M 388.52821 108 
L 390.250715 108 
L 390.250715 41.472 
L 388.52821 41.472 
z
" clip-path="url(#p9f52197534)" style="fill: #006837"/>
   </g>
   <g id="patch_377">
    <path d="M 391.974195 108 
L 393.696802 108 
L 393.696802 41.472 
L 391.974195 41.472 
z
" clip-path="url(#p9f52197534)" style="fill: #006837"/>
   </g>
   <g id="patch_378">
    <path d="M 395.420795 108 
L 398.487273 108 
L 398.487273 41.472 
L 395.420795 41.472 
z
" clip-path="url(#p9f52197534)" style="fill: #006837"/>
   </g>
   <g id="matplotlib.axis_1">
    <g id="xtick_1">
     <g id="line2d_1">
      <defs>
       <path id="meede6d0e58" d="M 0 0 
L 0 3.5 
" style="stroke: #000000; stroke-width: 0.8"/>
      </defs>
      <g>
       <use xlink:href="#meede6d0e58" x="73.832727" y="307.584" style="stroke: #000000; stroke-width: 0.8"/>
      </g>
     </g>
     <g id="text_1">
      <!-- 0.0 -->
      <g transform="translate(65.881165 322.182437) scale(0.1 -0.1)">
       <defs>
        <path id="DejaVuSans-30" d="M 2034 4250 
Q 1547 4250 1301 3770 
Q 1056 3291 1056 2328 
Q 1056 1369 1301 889 
Q 1547 409 2034 409 
Q 2525 409 2770 889 
Q 3016 1369 3016 2328 
Q 3016 3291 2770 3770 
Q 2525 4250 2034 4250 
z
M 2034 4750 
Q 2819 4750 3233 4129 
Q 3647 3509 3647 2328 
Q 3647 1150 3233 529 
Q 2819 -91 2034 -91 
Q 1250 -91 836 529 
Q 422 1150 422 2328 
Q 422 3509 836 4129 
Q 1250 4750 2034 4750 
z
" transform="scale(0.015625)"/>
        <path id="DejaVuSans-2e" d="M 684 794 
L 1344 794 
L 1344 0 
L 684 0 
L 684 794 
z
" transform="scale(0.015625)"/>
       </defs>
       <use xlink:href="#DejaVuSans-30"/>
       <use xlink:href="#DejaVuSans-2e" x="63.623047"/>
       <use xlink:href="#DejaVuSans-30" x="95.410156"/>
      </g>
     </g>
    </g>
    <g id="xtick_2">
     <g id="line2d_2">
      <g>
       <use xlink:href="#meede6d0e58" x="127.677726" y="307.584" style="stroke: #000000; stroke-width: 0.8"/>
      </g>
     </g>
     <g id="text_2">
      <!-- 0.5 -->
      <g transform="translate(119.726164 322.182437) scale(0.1 -0.1)">
       <defs>
        <path id="DejaVuSans-35" d="M 691 4666 
L 3169 4666 
L 3169 4134 
L 1269 4134 
L 1269 2991 
Q 1406 3038 1543 3061 
Q 1681 3084 1819 3084 
Q 2600 3084 3056 2656 
Q 3513 2228 3513 1497 
Q 3513 744 3044 326 
Q 2575 -91 1722 -91 
Q 1428 -91 1123 -41 
Q 819 9 494 109 
L 494 744 
Q 775 591 1075 516 
Q 1375 441 1709 441 
Q 2250 441 2565 725 
Q 2881 1009 2881 1497 
Q 2881 1984 2565 2268 
Q 2250 2553 1709 2553 
Q 1456 2553 1204 2497 
Q 953 2441 691 2322 
L 691 4666 
z
" transform="scale(0.015625)"/>
       </defs>
       <use xlink:href="#DejaVuSans-30"/>
       <use xlink:href="#DejaVuSans-2e" x="63.623047"/>
       <use xlink:href="#DejaVuSans-35" x="95.410156"/>
      </g>
     </g>
    </g>
    <g id="xtick_3">
     <g id="line2d_3">
      <g>
       <use xlink:href="#meede6d0e58" x="181.522725" y="307.584" style="stroke: #000000; stroke-width: 0.8"/>
      </g>
     </g>
     <g id="text_3">
      <!-- 1.0 -->
      <g transform="translate(173.571163 322.182437) scale(0.1 -0.1)">
       <defs>
        <path id="DejaVuSans-31" d="M 794 531 
L 1825 531 
L 1825 4091 
L 703 3866 
L 703 4441 
L 1819 4666 
L 2450 4666 
L 2450 531 
L 3481 531 
L 3481 0 
L 794 0 
L 794 531 
z
" transform="scale(0.015625)"/>
       </defs>
       <use xlink:href="#DejaVuSans-31"/>
       <use xlink:href="#DejaVuSans-2e" x="63.623047"/>
       <use xlink:href="#DejaVuSans-30" x="95.410156"/>
      </g>
     </g>
    </g>
    <g id="xtick_4">
     <g id="line2d_4">
      <g>
       <use xlink:href="#meede6d0e58" x="235.367725" y="307.584" style="stroke: #000000; stroke-width: 0.8"/>
      </g>
     </g>
     <g id="text_4">
      <!-- 1.5 -->
      <g transform="translate(227.416162 322.182437) scale(0.1 -0.1)">
       <use xlink:href="#DejaVuSans-31"/>
       <use xlink:href="#DejaVuSans-2e" x="63.623047"/>
       <use xlink:href="#DejaVuSans-35" x="95.410156"/>
      </g>
     </g>
    </g>
    <g id="xtick_5">
     <g id="line2d_5">
      <g>
       <use xlink:href="#meede6d0e58" x="289.212724" y="307.584" style="stroke: #000000; stroke-width: 0.8"/>
      </g>
     </g>
     <g id="text_5">
      <!-- 2.0 -->
      <g transform="translate(281.261161 322.182437) scale(0.1 -0.1)">
       <defs>
        <path id="DejaVuSans-32" d="M 1228 531 
L 3431 531 
L 3431 0 
L 469 0 
L 469 531 
Q 828 903 1448 1529 
Q 2069 2156 2228 2338 
Q 2531 2678 2651 2914 
Q 2772 3150 2772 3378 
Q 2772 3750 2511 3984 
Q 2250 4219 1831 4219 
Q 1534 4219 1204 4116 
Q 875 4013 500 3803 
L 500 4441 
Q 881 4594 1212 4672 
Q 1544 4750 1819 4750 
Q 2544 4750 2975 4387 
Q 3406 4025 3406 3419 
Q 3406 3131 3298 2873 
Q 3191 2616 2906 2266 
Q 2828 2175 2409 1742 
Q 1991 1309 1228 531 
z
" transform="scale(0.015625)"/>
       </defs>
       <use xlink:href="#DejaVuSans-32"/>
       <use xlink:href="#DejaVuSans-2e" x="63.623047"/>
       <use xlink:href="#DejaVuSans-30" x="95.410156"/>
      </g>
     </g>
    </g>
    <g id="xtick_6">
     <g id="line2d_6">
      <g>
       <use xlink:href="#meede6d0e58" x="343.057723" y="307.584" style="stroke: #000000; stroke-width: 0.8"/>
      </g>
     </g>
     <g id="text_6">
      <!-- 2.5 -->
      <g transform="translate(335.10616 322.182437) scale(0.1 -0.1)">
       <use xlink:href="#DejaVuSans-32"/>
       <use xlink:href="#DejaVuSans-2e" x="63.623047"/>
       <use xlink:href="#DejaVuSans-35" x="95.410156"/>
      </g>
     </g>
    </g>
    <g id="xtick_7">
     <g id="line2d_7">
      <g>
       <use xlink:href="#meede6d0e58" x="396.902722" y="307.584" style="stroke: #000000; stroke-width: 0.8"/>
      </g>
     </g>
     <g id="text_7">
      <!-- 3.0 -->
      <g transform="translate(388.951159 322.182437) scale(0.1 -0.1)">
       <defs>
        <path id="DejaVuSans-33" d="M 2597 2516 
Q 3050 2419 3304 2112 
Q 3559 1806 3559 1356 
Q 3559 666 3084 287 
Q 2609 -91 1734 -91 
Q 1441 -91 1130 -33 
Q 819 25 488 141 
L 488 750 
Q 750 597 1062 519 
Q 1375 441 1716 441 
Q 2309 441 2620 675 
Q 2931 909 2931 1356 
Q 2931 1769 2642 2001 
Q 2353 2234 1838 2234 
L 1294 2234 
L 1294 2753 
L 1863 2753 
Q 2328 2753 2575 2939 
Q 2822 3125 2822 3475 
Q 2822 3834 2567 4026 
Q 2313 4219 1838 4219 
Q 1578 4219 1281 4162 
Q 984 4106 628 3988 
L 628 4550 
Q 988 4650 1302 4700 
Q 1616 4750 1894 4750 
Q 2613 4750 3031 4423 
Q 3450 4097 3450 3541 
Q 3450 3153 3228 2886 
Q 3006 2619 2597 2516 
z
" transform="scale(0.015625)"/>
       </defs>
       <use xlink:href="#DejaVuSans-33"/>
       <use xlink:href="#DejaVuSans-2e" x="63.623047"/>
       <use xlink:href="#DejaVuSans-30" x="95.410156"/>
      </g>
     </g>
    </g>
    <g id="text_8">
     <!-- time -->
     <g transform="translate(224.863906 335.860562) scale(0.1 -0.1)">
      <defs>
       <path id="DejaVuSans-74" d="M 1172 4494 
L 1172 3500 
L 2356 3500 
L 2356 3053 
L 1172 3053 
L 1172 1153 
Q 1172 725 1289 603 
Q 1406 481 1766 481 
L 2356 481 
L 2356 0 
L 1766 0 
Q 1100 0 847 248 
Q 594 497 594 1153 
L 594 3053 
L 172 3053 
L 172 3500 
L 594 3500 
L 594 4494 
L 1172 4494 
z
" transform="scale(0.015625)"/>
       <path id="DejaVuSans-69" d="M 603 3500 
L 1178 3500 
L 1178 0 
L 603 0 
L 603 3500 
z
M 603 4863 
L 1178 4863 
L 1178 4134 
L 603 4134 
L 603 4863 
z
" transform="scale(0.015625)"/>
       <path id="DejaVuSans-6d" d="M 3328 2828 
Q 3544 3216 3844 3400 
Q 4144 3584 4550 3584 
Q 5097 3584 5394 3201 
Q 5691 2819 5691 2113 
L 5691 0 
L 5113 0 
L 5113 2094 
Q 5113 2597 4934 2840 
Q 4756 3084 4391 3084 
Q 3944 3084 3684 2787 
Q 3425 2491 3425 1978 
L 3425 0 
L 2847 0 
L 2847 2094 
Q 2847 2600 2669 2842 
Q 2491 3084 2119 3084 
Q 1678 3084 1418 2786 
Q 1159 2488 1159 1978 
L 1159 0 
L 581 0 
L 581 3500 
L 1159 3500 
L 1159 2956 
Q 1356 3278 1631 3431 
Q 1906 3584 2284 3584 
Q 2666 3584 2933 3390 
Q 3200 3197 3328 2828 
z
" transform="scale(0.015625)"/>
       <path id="DejaVuSans-65" d="M 3597 1894 
L 3597 1613 
L 953 1613 
Q 991 1019 1311 708 
Q 1631 397 2203 397 
Q 2534 397 2845 478 
Q 3156 559 3463 722 
L 3463 178 
Q 3153 47 2828 -22 
Q 2503 -91 2169 -91 
Q 1331 -91 842 396 
Q 353 884 353 1716 
Q 353 2575 817 3079 
Q 1281 3584 2069 3584 
Q 2775 3584 3186 3129 
Q 3597 2675 3597 1894 
z
M 3022 2063 
Q 3016 2534 2758 2815 
Q 2500 3097 2075 3097 
Q 1594 3097 1305 2825 
Q 1016 2553 972 2059 
L 3022 2063 
z
" transform="scale(0.015625)"/>
      </defs>
      <use xlink:href="#DejaVuSans-74"/>
      <use xlink:href="#DejaVuSans-69" x="39.208984"/>
      <use xlink:href="#DejaVuSans-6d" x="66.992188"/>
      <use xlink:href="#DejaVuSans-65" x="164.404297"/>
     </g>
    </g>
   </g>
   <g id="matplotlib.axis_2">
    <g id="ytick_1">
     <g id="line2d_8">
      <defs>
       <path id="mbfb48f2ef9" d="M 0 0 
L -3.5 0 
" style="stroke: #000000; stroke-width: 0.8"/>
      </defs>
      <g>
       <use xlink:href="#mbfb48f2ef9" x="57.6" y="307.584" style="stroke: #000000; stroke-width: 0.8"/>
      </g>
     </g>
     <g id="text_9">
      <!-- 0.0 -->
      <g transform="translate(34.696875 311.383219) scale(0.1 -0.1)">
       <use xlink:href="#DejaVuSans-30"/>
       <use xlink:href="#DejaVuSans-2e" x="63.623047"/>
       <use xlink:href="#DejaVuSans-30" x="95.410156"/>
      </g>
     </g>
    </g>
    <g id="ytick_2">
     <g id="line2d_9">
      <g>
       <use xlink:href="#mbfb48f2ef9" x="57.6" y="274.32" style="stroke: #000000; stroke-width: 0.8"/>
      </g>
     </g>
     <g id="text_10">
      <!-- 0.5 -->
      <g transform="translate(34.696875 278.119219) scale(0.1 -0.1)">
       <use xlink:href="#DejaVuSans-30"/>
       <use xlink:href="#DejaVuSans-2e" x="63.623047"/>
       <use xlink:href="#DejaVuSans-35" x="95.410156"/>
      </g>
     </g>
    </g>
    <g id="ytick_3">
     <g id="line2d_10">
      <g>
       <use xlink:href="#mbfb48f2ef9" x="57.6" y="241.056" style="stroke: #000000; stroke-width: 0.8"/>
      </g>
     </g>
     <g id="text_11">
      <!-- 1.0 -->
      <g transform="translate(34.696875 244.855219) scale(0.1 -0.1)">
       <use xlink:href="#DejaVuSans-31"/>
       <use xlink:href="#DejaVuSans-2e" x="63.623047"/>
       <use xlink:href="#DejaVuSans-30" x="95.410156"/>
      </g>
     </g>
    </g>
    <g id="ytick_4">
     <g id="line2d_11">
      <g>
       <use xlink:href="#mbfb48f2ef9" x="57.6" y="207.792" style="stroke: #000000; stroke-width: 0.8"/>
      </g>
     </g>
     <g id="text_12">
      <!-- 1.5 -->
      <g transform="translate(34.696875 211.591219) scale(0.1 -0.1)">
       <use xlink:href="#DejaVuSans-31"/>
       <use xlink:href="#DejaVuSans-2e" x="63.623047"/>
       <use xlink:href="#DejaVuSans-35" x="95.410156"/>
      </g>
     </g>
    </g>
    <g id="ytick_5">
     <g id="line2d_12">
      <g>
       <use xlink:href="#mbfb48f2ef9" x="57.6" y="174.528" style="stroke: #000000; stroke-width: 0.8"/>
      </g>
     </g>
     <g id="text_13">
      <!-- 2.0 -->
      <g transform="translate(34.696875 178.327219) scale(0.1 -0.1)">
       <use xlink:href="#DejaVuSans-32"/>
       <use xlink:href="#DejaVuSans-2e" x="63.623047"/>
       <use xlink:href="#DejaVuSans-30" x="95.410156"/>
      </g>
     </g>
    </g>
    <g id="ytick_6">
     <g id="line2d_13">
      <g>
       <use xlink:href="#mbfb48f2ef9" x="57.6" y="141.264" style="stroke: #000000; stroke-width: 0.8"/>
      </g>
     </g>
     <g id="text_14">
      <!-- 2.5 -->
      <g transform="translate(34.696875 145.063219) scale(0.1 -0.1)">
       <use xlink:href="#DejaVuSans-32"/>
       <use xlink:href="#DejaVuSans-2e" x="63.623047"/>
       <use xlink:href="#DejaVuSans-35" x="95.410156"/>
      </g>
     </g>
    </g>
    <g id="ytick_7">
     <g id="line2d_14">
      <g>
       <use xlink:href="#mbfb48f2ef9" x="57.6" y="108" style="stroke: #000000; stroke-width: 0.8"/>
      </g>
     </g>
     <g id="text_15">
      <!-- 3.0 -->
      <g transform="translate(34.696875 111.799219) scale(0.1 -0.1)">
       <use xlink:href="#DejaVuSans-33"/>
       <use xlink:href="#DejaVuSans-2e" x="63.623047"/>
       <use xlink:href="#DejaVuSans-30" x="95.410156"/>
      </g>
     </g>
    </g>
    <g id="ytick_8">
     <g id="line2d_15">
      <g>
       <use xlink:href="#mbfb48f2ef9" x="57.6" y="74.736" style="stroke: #000000; stroke-width: 0.8"/>
      </g>
     </g>
     <g id="text_16">
      <!-- 3.5 -->
      <g transform="translate(34.696875 78.535219) scale(0.1 -0.1)">
       <use xlink:href="#DejaVuSans-33"/>
       <use xlink:href="#DejaVuSans-2e" x="63.623047"/>
       <use xlink:href="#DejaVuSans-35" x="95.410156"/>
      </g>
     </g>
    </g>
    <g id="ytick_9">
     <g id="line2d_16">
      <g>
       <use xlink:href="#mbfb48f2ef9" x="57.6" y="41.472" style="stroke: #000000; stroke-width: 0.8"/>
      </g>
     </g>
     <g id="text_17">
      <!-- 4.0 -->
      <g transform="translate(34.696875 45.271219) scale(0.1 -0.1)">
       <defs>
        <path id="DejaVuSans-34" d="M 2419 4116 
L 825 1625 
L 2419 1625 
L 2419 4116 
z
M 2253 4666 
L 3047 4666 
L 3047 1625 
L 3713 1625 
L 3713 1100 
L 3047 1100 
L 3047 0 
L 2419 0 
L 2419 1100 
L 313 1100 
L 313 1709 
L 2253 4666 
z
" transform="scale(0.015625)"/>
       </defs>
       <use xlink:href="#DejaVuSans-34"/>
       <use xlink:href="#DejaVuSans-2e" x="63.623047"/>
       <use xlink:href="#DejaVuSans-30" x="95.410156"/>
      </g>
     </g>
    </g>
    <g id="text_18">
     <!-- thread -->
     <g transform="translate(28.617187 190.914719) rotate(-90) scale(0.1 -0.1)">
      <defs>
       <path id="DejaVuSans-68" d="M 3513 2113 
L 3513 0 
L 2938 0 
L 2938 2094 
Q 2938 2591 2744 2837 
Q 2550 3084 2163 3084 
Q 1697 3084 1428 2787 
Q 1159 2491 1159 1978 
L 1159 0 
L 581 0 
L 581 4863 
L 1159 4863 
L 1159 2956 
Q 1366 3272 1645 3428 
Q 1925 3584 2291 3584 
Q 2894 3584 3203 3211 
Q 3513 2838 3513 2113 
z
" transform="scale(0.015625)"/>
       <path id="DejaVuSans-72" d="M 2631 2963 
Q 2534 3019 2420 3045 
Q 2306 3072 2169 3072 
Q 1681 3072 1420 2755 
Q 1159 2438 1159 1844 
L 1159 0 
L 581 0 
L 581 3500 
L 1159 3500 
L 1159 2956 
Q 1341 3275 1631 3429 
Q 1922 3584 2338 3584 
Q 2397 3584 2469 3576 
Q 2541 3569 2628 3553 
L 2631 2963 
z
" transform="scale(0.015625)"/>
       <path id="DejaVuSans-61" d="M 2194 1759 
Q 1497 1759 1228 1600 
Q 959 1441 959 1056 
Q 959 750 1161 570 
Q 1363 391 1709 391 
Q 2188 391 2477 730 
Q 2766 1069 2766 1631 
L 2766 1759 
L 2194 1759 
z
M 3341 1997 
L 3341 0 
L 2766 0 
L 2766 531 
Q 2569 213 2275 61 
Q 1981 -91 1556 -91 
Q 1019 -91 701 211 
Q 384 513 384 1019 
Q 384 1609 779 1909 
Q 1175 2209 1959 2209 
L 2766 2209 
L 2766 2266 
Q 2766 2663 2505 2880 
Q 2244 3097 1772 3097 
Q 1472 3097 1187 3025 
Q 903 2953 641 2809 
L 641 3341 
Q 956 3463 1253 3523 
Q 1550 3584 1831 3584 
Q 2591 3584 2966 3190 
Q 3341 2797 3341 1997 
z
" transform="scale(0.015625)"/>
       <path id="DejaVuSans-64" d="M 2906 2969 
L 2906 4863 
L 3481 4863 
L 3481 0 
L 2906 0 
L 2906 525 
Q 2725 213 2448 61 
Q 2172 -91 1784 -91 
Q 1150 -91 751 415 
Q 353 922 353 1747 
Q 353 2572 751 3078 
Q 1150 3584 1784 3584 
Q 2172 3584 2448 3432 
Q 2725 3281 2906 2969 
z
M 947 1747 
Q 947 1113 1208 752 
Q 1469 391 1925 391 
Q 2381 391 2643 752 
Q 2906 1113 2906 1747 
Q 2906 2381 2643 2742 
Q 2381 3103 1925 3103 
Q 1469 3103 1208 2742 
Q 947 2381 947 1747 
z
" transform="scale(0.015625)"/>
      </defs>
      <use xlink:href="#DejaVuSans-74"/>
      <use xlink:href="#DejaVuSans-68" x="39.208984"/>
      <use xlink:href="#DejaVuSans-72" x="102.587891"/>
      <use xlink:href="#DejaVuSans-65" x="141.451172"/>
      <use xlink:href="#DejaVuSans-61" x="202.974609"/>
      <use xlink:href="#DejaVuSans-64" x="264.253906"/>
     </g>
    </g>
   </g>
   <g id="patch_379">
    <path d="M 57.6 307.584 
L 57.6 41.472 
" style="fill: none; stroke: #000000; stroke-width: 0.8; stroke-linejoin: miter; stroke-linecap: square"/>
   </g>
   <g id="patch_380">
    <path d="M 414.72 307.584 
L 414.72 41.472 
" style="fill: none; stroke: #000000; stroke-width: 0.8; stroke-linejoin: miter; stroke-linecap: square"/>
   </g>
   <g id="patch_381">
    <path d="M 57.6 307.584 
L 414.72 307.584 
" style="fill: none; stroke: #000000; stroke-width: 0.8; stroke-linejoin: miter; stroke-linecap: square"/>
   </g>
   <g id="patch_382">
    <path d="M 57.6 41.472 
L 414.72 41.472 
" style="fill: none; stroke: #000000; stroke-width: 0.8; stroke-linejoin: miter; stroke-linecap: square"/>
   </g>
   <g id="text_19">
    <!-- thread scheduling -->
    <g transform="translate(182.113125 35.472) scale(0.12 -0.12)">
     <defs>
      <path id="DejaVuSans-20" transform="scale(0.015625)"/>
      <path id="DejaVuSans-73" d="M 2834 3397 
L 2834 2853 
Q 2591 2978 2328 3040 
Q 2066 3103 1784 3103 
Q 1356 3103 1142 2972 
Q 928 2841 928 2578 
Q 928 2378 1081 2264 
Q 1234 2150 1697 2047 
L 1894 2003 
Q 2506 1872 2764 1633 
Q 3022 1394 3022 966 
Q 3022 478 2636 193 
Q 2250 -91 1575 -91 
Q 1294 -91 989 -36 
Q 684 19 347 128 
L 347 722 
Q 666 556 975 473 
Q 1284 391 1588 391 
Q 1994 391 2212 530 
Q 2431 669 2431 922 
Q 2431 1156 2273 1281 
Q 2116 1406 1581 1522 
L 1381 1569 
Q 847 1681 609 1914 
Q 372 2147 372 2553 
Q 372 3047 722 3315 
Q 1072 3584 1716 3584 
Q 2034 3584 2315 3537 
Q 2597 3491 2834 3397 
z
" transform="scale(0.015625)"/>
      <path id="DejaVuSans-63" d="M 3122 3366 
L 3122 2828 
Q 2878 2963 2633 3030 
Q 2388 3097 2138 3097 
Q 1578 3097 1268 2742 
Q 959 2388 959 1747 
Q 959 1106 1268 751 
Q 1578 397 2138 397 
Q 2388 397 2633 464 
Q 2878 531 3122 666 
L 3122 134 
Q 2881 22 2623 -34 
Q 2366 -91 2075 -91 
Q 1284 -91 818 406 
Q 353 903 353 1747 
Q 353 2603 823 3093 
Q 1294 3584 2113 3584 
Q 2378 3584 2631 3529 
Q 2884 3475 3122 3366 
z
" transform="scale(0.015625)"/>
      <path id="DejaVuSans-75" d="M 544 1381 
L 544 3500 
L 1119 3500 
L 1119 1403 
Q 1119 906 1312 657 
Q 1506 409 1894 409 
Q 2359 409 2629 706 
Q 2900 1003 2900 1516 
L 2900 3500 
L 3475 3500 
L 3475 0 
L 2900 0 
L 2900 538 
Q 2691 219 2414 64 
Q 2138 -91 1772 -91 
Q 1169 -91 856 284 
Q 544 659 544 1381 
z
M 1991 3584 
L 1991 3584 
z
" transform="scale(0.015625)"/>
      <path id="DejaVuSans-6c" d="M 603 4863 
L 1178 4863 
L 1178 0 
L 603 0 
L 603 4863 
z
" transform="scale(0.015625)"/>
      <path id="DejaVuSans-6e" d="M 3513 2113 
L 3513 0 
L 2938 0 
L 2938 2094 
Q 2938 2591 2744 2837 
Q 2550 3084 2163 3084 
Q 1697 3084 1428 2787 
Q 1159 2491 1159 1978 
L 1159 0 
L 581 0 
L 581 3500 
L 1159 3500 
L 1159 2956 
Q 1366 3272 1645 3428 
Q 1925 3584 2291 3584 
Q 2894 3584 3203 3211 
Q 3513 2838 3513 2113 
z
" transform="scale(0.015625)"/>
      <path id="DejaVuSans-67" d="M 2906 1791 
Q 2906 2416 2648 2759 
Q 2391 3103 1925 3103 
Q 1463 3103 1205 2759 
Q 947 2416 947 1791 
Q 947 1169 1205 825 
Q 1463 481 1925 481 
Q 2391 481 2648 825 
Q 2906 1169 2906 1791 
z
M 3481 434 
Q 3481 -459 3084 -895 
Q 2688 -1331 1869 -1331 
Q 1566 -1331 1297 -1286 
Q 1028 -1241 775 -1147 
L 775 -588 
Q 1028 -725 1275 -790 
Q 1522 -856 1778 -856 
Q 2344 -856 2625 -561 
Q 2906 -266 2906 331 
L 2906 616 
Q 2728 306 2450 153 
Q 2172 0 1784 0 
Q 1141 0 747 490 
Q 353 981 353 1791 
Q 353 2603 747 3093 
Q 1141 3584 1784 3584 
Q 2172 3584 2450 3431 
Q 2728 3278 2906 2969 
L 2906 3500 
L 3481 3500 
L 3481 434 
z
" transform="scale(0.015625)"/>
     </defs>
     <use xlink:href="#DejaVuSans-74"/>
     <use xlink:href="#DejaVuSans-68" x="39.208984"/>
     <use xlink:href="#DejaVuSans-72" x="102.587891"/>
     <use xlink:href="#DejaVuSans-65" x="141.451172"/>
     <use xlink:href="#DejaVuSans-61" x="202.974609"/>
     <use xlink:href="#DejaVuSans-64" x="264.253906"/>
     <use xlink:href="#DejaVuSans-20" x="327.730469"/>
     <use xlink:href="#DejaVuSans-73" x="359.517578"/>
     <use xlink:href="#DejaVuSans-63" x="411.617188"/>
     <use xlink:href="#DejaVuSans-68" x="466.597656"/>
     <use xlink:href="#DejaVuSans-65" x="529.976562"/>
     <use xlink:href="#DejaVuSans-64" x="591.5"/>
     <use xlink:href="#DejaVuSans-75" x="654.976562"/>
     <use xlink:href="#DejaVuSans-6c" x="718.355469"/>
     <use xlink:href="#DejaVuSans-69" x="746.138672"/>
     <use xlink:href="#DejaVuSans-6e" x="773.921875"/>
     <use xlink:href="#DejaVuSans-67" x="837.300781"/>
    </g>
   </g>
  </g>
 </g>
 <defs>
  <clipPath id="p9f52197534">
   <rect x="57.6" y="41.472" width="357.12" height="266.112"/>
  </clipPath>
 </defs>
</svg>
